<svg width="46" height="46" viewBox="0 0 46 46" fill="none" xmlns="http://www.w3.org/2000/svg">
<line x1="36" y1="41" x2="46" y2="41" stroke="#F0F0F0" stroke-width="2"/>
<path d="M6.5964 12.6364V2H32.7L39 8.20455V41H28.2M30 2V10.8636H39M15.6 21.5V28.5909L21 33.9091M15.6 41C18.9417 41 22.1466 39.6926 24.5095 37.3655C26.8725 35.0383 28.2 31.882 28.2 28.5909C28.2 25.2998 26.8725 22.1435 24.5095 19.8164C22.1466 17.4892 18.9417 16.1818 15.6 16.1818C12.2583 16.1818 9.05341 17.4892 6.69045 19.8164C4.3275 22.1435 3 25.2998 3 28.5909C3 31.882 4.3275 35.0383 6.69045 37.3655C9.05341 39.6926 12.2583 41 15.6 41Z" stroke="#F0F0F0" stroke-width="2"/>
</svg>
