<svg width="46" height="46" viewBox="0 0 46 46" fill="none" xmlns="http://www.w3.org/2000/svg">
<line x1="3" y1="41" x2="46" y2="41" stroke="#F0F0F0" stroke-width="2"/>
<path d="M15.3333 39.4167C16.35 39.4167 17.325 39.0128 18.0439 38.2939C18.7628 37.575 19.1667 36.6 19.1667 35.5833C19.1667 34.5667 18.7628 33.5916 18.0439 32.8728C17.325 32.1539 16.35 31.75 15.3333 31.75C14.3167 31.75 13.3416 32.1539 12.6228 32.8728C11.9039 33.5916 11.5 34.5667 11.5 35.5833C11.5 36.6 11.9039 37.575 12.6228 38.2939C13.3416 39.0128 14.3167 39.4167 15.3333 39.4167ZM34.5 39.4167C35.5167 39.4167 36.4917 39.0128 37.2106 38.2939C37.9295 37.575 38.3333 36.6 38.3333 35.5833C38.3333 34.5667 37.9295 33.5916 37.2106 32.8728C36.4917 32.1539 35.5167 31.75 34.5 31.75C33.4833 31.75 32.5083 32.1539 31.7894 32.8728C31.0705 33.5916 30.6667 34.5667 30.6667 35.5833C30.6667 36.6 31.0705 37.575 31.7894 38.2939C32.5083 39.0128 33.4833 39.4167 34.5 39.4167Z" stroke="#F0F0F0" stroke-width="1.5" stroke-miterlimit="1.5" stroke-linecap="round" stroke-linejoin="round"/>
<path d="M19.2625 35.5833H28.75V15.65C28.75 15.345 28.6288 15.0525 28.4132 14.8368C28.1975 14.6212 27.905 14.5 27.6 14.5H1.91666M10.8292 35.5833H6.89999C6.74897 35.5833 6.59943 35.5536 6.4599 35.4958C6.32038 35.438 6.1936 35.3533 6.08682 35.2465C5.98003 35.1397 5.89532 35.0129 5.83753 34.8734C5.77974 34.7339 5.74999 34.5844 5.74999 34.4333V25.0417" stroke="#F0F0F0" stroke-width="1.5" stroke-linecap="round"/>
<path d="M3.83331 20.25H11.5" stroke="#F0F0F0" stroke-width="1.5" stroke-linecap="round" stroke-linejoin="round"/>
<path d="M28.75 20.25H39.5025C39.7248 20.2501 39.9423 20.3145 40.1287 20.4356C40.3151 20.5567 40.4624 20.7293 40.5528 20.9323L43.9837 28.6527C44.049 28.7993 44.083 28.9579 44.0833 29.1184V34.4333C44.0833 34.5844 44.0536 34.7339 43.9958 34.8734C43.938 35.0129 43.8533 35.1397 43.7465 35.2465C43.6397 35.3533 43.5129 35.438 43.3734 35.4958C43.2339 35.5536 43.0844 35.5833 42.9333 35.5833H39.2917M28.75 35.5833H30.6667" stroke="#F0F0F0" stroke-width="1.5" stroke-linecap="round"/>
</svg>
