<svg width="46" height="46" viewBox="0 0 46 46" fill="none" xmlns="http://www.w3.org/2000/svg">
<line x1="36" y1="41" x2="46" y2="41" stroke="#F0F0F0" stroke-width="2"/>
<path d="M9.43383 3.59375C8.39096 3.59376 7.38783 3.9938 6.63114 4.71144C5.87446 5.42908 5.42188 6.40963 5.36667 7.45104L3.75475 37.8781C3.72547 38.4304 3.80897 38.9828 4.00014 39.5017C4.19131 40.0206 4.48615 40.4952 4.8667 40.8965C5.24725 41.2977 5.70553 41.6173 6.2136 41.8357C6.72168 42.054 7.2689 42.1667 7.82192 42.1667H14.2178C14.7709 42.1667 15.3181 42.054 15.8261 41.8357C16.3342 41.6173 16.7925 41.2977 17.173 40.8965C17.5536 40.4952 17.8484 40.0206 18.0396 39.5017C18.2308 38.9828 18.3143 38.4304 18.285 37.8781L16.6731 7.45104C16.6179 6.40963 16.1653 5.42908 15.4086 4.71144C14.6519 3.9938 13.6488 3.59376 12.6059 3.59375H9.43383ZM7.75963 7.57754C7.78244 7.14887 7.96876 6.74527 8.28022 6.44986C8.59168 6.15445 9.00456 5.98971 9.43383 5.98958H12.6059C13.4972 5.98958 14.2332 6.68725 14.2801 7.57754L15.893 38.0046C15.9051 38.2321 15.8707 38.4596 15.792 38.6734C15.7133 38.8871 15.5919 39.0826 15.4351 39.2479C15.2784 39.4131 15.0896 39.5447 14.8803 39.6346C14.671 39.7246 14.4456 39.7709 14.2178 39.7708H7.82192C7.59422 39.7708 7.36892 39.7243 7.15974 39.6344C6.95057 39.5444 6.76192 39.4128 6.60527 39.2475C6.44862 39.0822 6.32727 38.8868 6.2486 38.6731C6.16994 38.4595 6.13561 38.232 6.14771 38.0046L7.75963 7.57754ZM18.6099 42.1667C19.2435 41.4847 19.7095 40.6644 19.9707 39.7708H22.5199V29.9479C22.5199 29.0222 23.2712 28.2708 24.197 28.2708H34.7386C35.6653 28.2708 36.4157 29.0222 36.4157 29.9479V39.7708H37.1651C37.8604 39.7709 38.5276 39.4961 39.0212 39.0064C39.5149 38.5167 39.795 37.8518 39.8005 37.1565L39.9865 13.4569L29.5962 23.8472C29.4287 24.0147 29.2152 24.1289 28.9828 24.1751C28.7504 24.2214 28.5095 24.1976 28.2906 24.1069C28.0717 24.0163 27.8846 23.8627 27.7529 23.6656C27.6213 23.4686 27.5511 23.237 27.5511 23V13.4339L19.344 21.6411L19.1734 18.423L27.9019 9.6945C28.0694 9.52659 28.2829 9.41218 28.5155 9.36575C28.748 9.31932 28.9892 9.34296 29.2083 9.43369C29.4274 9.52441 29.6146 9.67814 29.7463 9.87538C29.878 10.0726 29.9482 10.3045 29.9479 10.5417V20.1078L40.3612 9.6945C40.5293 9.52633 40.7436 9.412 40.9769 9.36606C41.2102 9.32012 41.4519 9.34465 41.6712 9.43652C41.8906 9.5284 42.0776 9.68347 42.2085 9.88198C42.3394 10.0805 42.4082 10.3135 42.4062 10.5513L42.1954 37.1738C42.1853 38.5015 41.6508 39.7714 40.7083 40.7066C39.7659 41.6419 38.4919 42.1667 37.1642 42.1667H18.6099ZM24.9157 39.7708H34.0199V30.6667H24.9167L24.9157 39.7708Z" fill="#F0F0F0"/>
</svg>
