<svg width="46" height="46" viewBox="0 0 46 46" fill="none" xmlns="http://www.w3.org/2000/svg">
<path d="M21 40C20.4477 40 20 40.4477 20 41C20 41.5523 20.4477 42 21 42V40ZM21 42L46 42V40L21 40V42Z" fill="#F0F0F0"/>
<path d="M23 4.79163C15.6975 4.79163 10.5417 10.049 10.5417 16.5197C10.5417 19.4637 11.753 21.4494 13.2729 23.343C13.6026 23.7551 13.938 24.1519 14.283 24.5601L14.467 24.7748C14.8695 25.254 15.2854 25.7485 15.6745 26.2583C16.4488 27.276 17.1752 28.4203 17.5816 29.7735C17.6811 30.1353 17.6351 30.5218 17.4535 30.8502C17.2719 31.1787 16.969 31.4231 16.6096 31.5312C16.2502 31.6393 15.8628 31.6026 15.5301 31.4289C15.1974 31.2551 14.9459 30.9582 14.8292 30.6015C14.5647 29.7198 14.0683 28.8956 13.386 28.0005C13.0258 27.535 12.6539 27.0787 12.2705 26.632L12.0942 26.4212C11.7492 26.0149 11.385 25.5855 11.0304 25.1428C9.33416 23.0306 7.66666 20.4144 7.66666 16.5178C7.66666 8.36238 14.2121 1.91663 23 1.91663C31.7879 1.91663 38.3333 8.36046 38.3333 16.5197C38.3333 20.4144 36.6658 23.0306 34.9696 25.1447C34.615 25.5855 34.2508 26.0149 33.9058 26.4231L33.7295 26.632C33.327 27.1074 32.9532 27.554 32.614 28.0005C31.9317 28.8956 31.4352 29.7217 31.1707 30.6015C31.0484 30.9514 30.7958 31.2407 30.4654 31.409C30.1351 31.5773 29.7526 31.6117 29.3975 31.505C29.0425 31.3982 28.7423 31.1586 28.5596 30.8361C28.3768 30.5135 28.3256 30.1329 28.4165 29.7735C28.8247 28.4203 29.5512 27.276 30.3274 26.2583C30.7146 25.7485 31.1305 25.254 31.5349 24.7748L31.717 24.5601C32.062 24.1519 32.3974 23.7551 32.7271 23.345C34.247 21.4475 35.4583 19.4637 35.4583 16.5197C35.4583 10.049 30.3025 4.79163 23 4.79163ZM16.7708 34.5H29.2292C29.6104 34.5 29.976 34.6514 30.2456 34.921C30.5152 35.1906 30.6667 35.5562 30.6667 35.9375C30.6667 36.3187 30.5152 36.6843 30.2456 36.9539C29.976 37.2235 29.6104 37.375 29.2292 37.375H16.7708C16.3896 37.375 16.0239 37.2235 15.7544 36.9539C15.4848 36.6843 15.3333 36.3187 15.3333 35.9375C15.3333 35.5562 15.4848 35.1906 15.7544 34.921C16.0239 34.6514 16.3896 34.5 16.7708 34.5Z" fill="#F0F0F0"/>
</svg>
