<svg width="268" height="553" viewBox="0 0 268 553" fill="none" xmlns="http://www.w3.org/2000/svg">
<g clip-path="url(#clip0_226_590)">
<path d="M246.46 43.2428C248.697 43.2428 250.511 41.4293 250.511 39.1923C250.511 36.9553 248.697 35.1418 246.46 35.1418C244.223 35.1418 242.41 36.9553 242.41 39.1923C242.41 41.4293 244.223 43.2428 246.46 43.2428Z" fill="#032E58"/>
<path d="M264.007 43.2428C266.244 43.2428 268.057 41.4293 268.057 39.1923C268.057 36.9553 266.244 35.1418 264.007 35.1418C261.77 35.1418 259.956 36.9553 259.956 39.1923C259.956 41.4293 261.77 43.2428 264.007 43.2428Z" fill="#032E58"/>
<path d="M246.46 60.8055C248.697 60.8055 250.511 58.9921 250.511 56.755C250.511 54.518 248.697 52.7046 246.46 52.7046C244.223 52.7046 242.41 54.518 242.41 56.755C242.41 58.9921 244.223 60.8055 246.46 60.8055Z" fill="#032E58"/>
<path d="M264.007 60.8055C266.244 60.8055 268.057 58.9921 268.057 56.755C268.057 54.518 266.244 52.7046 264.007 52.7046C261.77 52.7046 259.956 54.518 259.956 56.755C259.956 58.9921 261.77 60.8055 264.007 60.8055Z" fill="#032E58"/>
<path d="M141.279 78.3844C143.516 78.3844 145.329 76.5709 145.329 74.3339C145.329 72.0969 143.516 70.2834 141.279 70.2834C139.042 70.2834 137.228 72.0969 137.228 74.3339C137.228 76.5709 139.042 78.3844 141.279 78.3844Z" fill="#032E58"/>
<path d="M158.809 78.3844C161.046 78.3844 162.859 76.5709 162.859 74.3339C162.859 72.0969 161.046 70.2834 158.809 70.2834C156.572 70.2834 154.759 72.0969 154.759 74.3339C154.759 76.5709 156.572 78.3844 158.809 78.3844Z" fill="#032E58"/>
<path d="M176.339 78.3844C178.576 78.3844 180.39 76.5709 180.39 74.3339C180.39 72.0969 178.576 70.2834 176.339 70.2834C174.102 70.2834 172.289 72.0969 172.289 74.3339C172.289 76.5709 174.102 78.3844 176.339 78.3844Z" fill="#032E58"/>
<path d="M193.869 78.3844C196.106 78.3844 197.92 76.5709 197.92 74.3339C197.92 72.0969 196.106 70.2834 193.869 70.2834C191.632 70.2834 189.819 72.0969 189.819 74.3339C189.819 76.5709 191.632 78.3844 193.869 78.3844Z" fill="#032E58"/>
<path d="M211.4 78.3844C213.637 78.3844 215.45 76.5709 215.45 74.3339C215.45 72.0969 213.637 70.2834 211.4 70.2834C209.163 70.2834 207.349 72.0969 207.349 74.3339C207.349 76.5709 209.163 78.3844 211.4 78.3844Z" fill="#032E58"/>
<path d="M228.93 78.3844C231.167 78.3844 232.98 76.5709 232.98 74.3339C232.98 72.0969 231.167 70.2834 228.93 70.2834C226.693 70.2834 224.88 72.0969 224.88 74.3339C224.88 76.5709 226.693 78.3844 228.93 78.3844Z" fill="#032E58"/>
<path d="M246.46 78.3844C248.697 78.3844 250.511 76.5709 250.511 74.3339C250.511 72.0969 248.697 70.2834 246.46 70.2834C244.223 70.2834 242.41 72.0969 242.41 74.3339C242.41 76.5709 244.223 78.3844 246.46 78.3844Z" fill="#032E58"/>
<path d="M264.007 78.3844C266.244 78.3844 268.057 76.5709 268.057 74.3339C268.057 72.0969 266.244 70.2834 264.007 70.2834C261.77 70.2834 259.956 72.0969 259.956 74.3339C259.956 76.5709 261.77 78.3844 264.007 78.3844Z" fill="#032E58"/>
<path d="M123.748 95.9635C125.985 95.9635 127.799 94.15 127.799 91.913C127.799 89.676 125.985 87.8625 123.748 87.8625C121.511 87.8625 119.698 89.676 119.698 91.913C119.698 94.15 121.511 95.9635 123.748 95.9635Z" fill="#032E58"/>
<path d="M141.279 95.9635C143.516 95.9635 145.329 94.15 145.329 91.913C145.329 89.676 143.516 87.8625 141.279 87.8625C139.042 87.8625 137.228 89.676 137.228 91.913C137.228 94.15 139.042 95.9635 141.279 95.9635Z" fill="#032E58"/>
<path d="M158.809 95.9635C161.046 95.9635 162.859 94.15 162.859 91.913C162.859 89.676 161.046 87.8625 158.809 87.8625C156.572 87.8625 154.759 89.676 154.759 91.913C154.759 94.15 156.572 95.9635 158.809 95.9635Z" fill="#032E58"/>
<path d="M176.339 95.9635C178.576 95.9635 180.39 94.15 180.39 91.913C180.39 89.676 178.576 87.8625 176.339 87.8625C174.102 87.8625 172.289 89.676 172.289 91.913C172.289 94.15 174.102 95.9635 176.339 95.9635Z" fill="#032E58"/>
<path d="M211.4 95.9635C213.637 95.9635 215.45 94.15 215.45 91.913C215.45 89.676 213.637 87.8625 211.4 87.8625C209.163 87.8625 207.349 89.676 207.349 91.913C207.349 94.15 209.163 95.9635 211.4 95.9635Z" fill="#032E58"/>
<path d="M228.93 95.9635C231.167 95.9635 232.98 94.15 232.98 91.913C232.98 89.676 231.167 87.8625 228.93 87.8625C226.693 87.8625 224.88 89.676 224.88 91.913C224.88 94.15 226.693 95.9635 228.93 95.9635Z" fill="#032E58"/>
<path d="M246.46 95.9635C248.697 95.9635 250.511 94.15 250.511 91.913C250.511 89.676 248.697 87.8625 246.46 87.8625C244.223 87.8625 242.41 89.676 242.41 91.913C242.41 94.15 244.223 95.9635 246.46 95.9635Z" fill="#032E58"/>
<path d="M264.007 95.9635C266.244 95.9635 268.057 94.15 268.057 91.913C268.057 89.676 266.244 87.8625 264.007 87.8625C261.77 87.8625 259.956 89.676 259.956 91.913C259.956 94.15 261.77 95.9635 264.007 95.9635Z" fill="#032E58"/>
<path d="M106.218 113.526C108.455 113.526 110.269 111.713 110.269 109.476C110.269 107.239 108.455 105.425 106.218 105.425C103.981 105.425 102.168 107.239 102.168 109.476C102.168 111.713 103.981 113.526 106.218 113.526Z" fill="#032E58"/>
<path d="M123.748 113.526C125.985 113.526 127.799 111.713 127.799 109.476C127.799 107.239 125.985 105.425 123.748 105.425C121.511 105.425 119.698 107.239 119.698 109.476C119.698 111.713 121.511 113.526 123.748 113.526Z" fill="#032E58"/>
<path d="M141.279 113.526C143.516 113.526 145.329 111.713 145.329 109.476C145.329 107.239 143.516 105.425 141.279 105.425C139.042 105.425 137.228 107.239 137.228 109.476C137.228 111.713 139.042 113.526 141.279 113.526Z" fill="#032E58"/>
<path d="M158.809 113.526C161.046 113.526 162.859 111.713 162.859 109.476C162.859 107.239 161.046 105.425 158.809 105.425C156.572 105.425 154.759 107.239 154.759 109.476C154.759 111.713 156.572 113.526 158.809 113.526Z" fill="#032E58"/>
<path d="M176.339 113.526C178.576 113.526 180.39 111.713 180.39 109.476C180.39 107.239 178.576 105.425 176.339 105.425C174.102 105.425 172.289 107.239 172.289 109.476C172.289 111.713 174.102 113.526 176.339 113.526Z" fill="#032E58"/>
<path d="M193.869 113.526C196.106 113.526 197.92 111.713 197.92 109.476C197.92 107.239 196.106 105.425 193.869 105.425C191.632 105.425 189.819 107.239 189.819 109.476C189.819 111.713 191.632 113.526 193.869 113.526Z" fill="#032E58"/>
<path d="M211.4 113.526C213.637 113.526 215.45 111.713 215.45 109.476C215.45 107.239 213.637 105.425 211.4 105.425C209.163 105.425 207.349 107.239 207.349 109.476C207.349 111.713 209.163 113.526 211.4 113.526Z" fill="#032E58"/>
<path d="M228.93 113.526C231.167 113.526 232.98 111.713 232.98 109.476C232.98 107.239 231.167 105.425 228.93 105.425C226.693 105.425 224.88 107.239 224.88 109.476C224.88 111.713 226.693 113.526 228.93 113.526Z" fill="#032E58"/>
<path d="M246.46 113.526C248.697 113.526 250.511 111.713 250.511 109.476C250.511 107.239 248.697 105.425 246.46 105.425C244.223 105.425 242.41 107.239 242.41 109.476C242.41 111.713 244.223 113.526 246.46 113.526Z" fill="#032E58"/>
<path d="M264.007 113.526C266.244 113.526 268.057 111.713 268.057 109.476C268.057 107.239 266.244 105.425 264.007 105.425C261.77 105.425 259.956 107.239 259.956 109.476C259.956 111.713 261.77 113.526 264.007 113.526Z" fill="#032E58"/>
<path d="M71.1578 131.105C73.3948 131.105 75.2083 129.292 75.2083 127.055C75.2083 124.818 73.3948 123.004 71.1578 123.004C68.9209 123.004 67.1074 124.818 67.1074 127.055C67.1074 129.292 68.9209 131.105 71.1578 131.105Z" fill="#032E58"/>
<path d="M106.218 131.105C108.455 131.105 110.269 129.292 110.269 127.055C110.269 124.818 108.455 123.004 106.218 123.004C103.981 123.004 102.168 124.818 102.168 127.055C102.168 129.292 103.981 131.105 106.218 131.105Z" fill="#032E58"/>
<path d="M123.748 131.105C125.985 131.105 127.799 129.292 127.799 127.055C127.799 124.818 125.985 123.004 123.748 123.004C121.511 123.004 119.698 124.818 119.698 127.055C119.698 129.292 121.511 131.105 123.748 131.105Z" fill="#032E58"/>
<path d="M158.809 131.105C161.046 131.105 162.859 129.292 162.859 127.055C162.859 124.818 161.046 123.004 158.809 123.004C156.572 123.004 154.759 124.818 154.759 127.055C154.759 129.292 156.572 131.105 158.809 131.105Z" fill="#032E58"/>
<path d="M176.339 131.105C178.576 131.105 180.39 129.292 180.39 127.055C180.39 124.818 178.576 123.004 176.339 123.004C174.102 123.004 172.289 124.818 172.289 127.055C172.289 129.292 174.102 131.105 176.339 131.105Z" fill="#032E58"/>
<path d="M193.869 131.105C196.106 131.105 197.92 129.292 197.92 127.055C197.92 124.818 196.106 123.004 193.869 123.004C191.632 123.004 189.819 124.818 189.819 127.055C189.819 129.292 191.632 131.105 193.869 131.105Z" fill="#032E58"/>
<path d="M211.4 131.105C213.637 131.105 215.45 129.292 215.45 127.055C215.45 124.818 213.637 123.004 211.4 123.004C209.163 123.004 207.349 124.818 207.349 127.055C207.349 129.292 209.163 131.105 211.4 131.105Z" fill="#032E58"/>
<path d="M228.93 131.105C231.167 131.105 232.98 129.292 232.98 127.055C232.98 124.818 231.167 123.004 228.93 123.004C226.693 123.004 224.88 124.818 224.88 127.055C224.88 129.292 226.693 131.105 228.93 131.105Z" fill="#032E58"/>
<path d="M246.46 131.105C248.697 131.105 250.511 129.292 250.511 127.055C250.511 124.818 248.697 123.004 246.46 123.004C244.223 123.004 242.41 124.818 242.41 127.055C242.41 129.292 244.223 131.105 246.46 131.105Z" fill="#032E58"/>
<path d="M264.007 131.105C266.244 131.105 268.057 129.292 268.057 127.055C268.057 124.818 266.244 123.004 264.007 123.004C261.77 123.004 259.956 124.818 259.956 127.055C259.956 129.292 261.77 131.105 264.007 131.105Z" fill="#032E58"/>
<path d="M71.1578 148.684C73.3948 148.684 75.2083 146.871 75.2083 144.634C75.2083 142.397 73.3948 140.583 71.1578 140.583C68.9209 140.583 67.1074 142.397 67.1074 144.634C67.1074 146.871 68.9209 148.684 71.1578 148.684Z" fill="#032E58"/>
<path d="M106.218 148.684C108.455 148.684 110.269 146.871 110.269 144.634C110.269 142.397 108.455 140.583 106.218 140.583C103.981 140.583 102.168 142.397 102.168 144.634C102.168 146.871 103.981 148.684 106.218 148.684Z" fill="#032E58"/>
<path d="M123.748 148.684C125.985 148.684 127.799 146.871 127.799 144.634C127.799 142.397 125.985 140.583 123.748 140.583C121.511 140.583 119.698 142.397 119.698 144.634C119.698 146.871 121.511 148.684 123.748 148.684Z" fill="#032E58"/>
<path d="M158.809 148.684C161.046 148.684 162.859 146.871 162.859 144.634C162.859 142.397 161.046 140.583 158.809 140.583C156.572 140.583 154.759 142.397 154.759 144.634C154.759 146.871 156.572 148.684 158.809 148.684Z" fill="#032E58"/>
<path d="M176.339 148.684C178.576 148.684 180.39 146.871 180.39 144.634C180.39 142.397 178.576 140.583 176.339 140.583C174.102 140.583 172.289 142.397 172.289 144.634C172.289 146.871 174.102 148.684 176.339 148.684Z" fill="#032E58"/>
<path d="M193.869 148.684C196.106 148.684 197.92 146.871 197.92 144.634C197.92 142.397 196.106 140.583 193.869 140.583C191.632 140.583 189.819 142.397 189.819 144.634C189.819 146.871 191.632 148.684 193.869 148.684Z" fill="#032E58"/>
<path d="M211.4 148.684C213.637 148.684 215.45 146.871 215.45 144.634C215.45 142.397 213.637 140.583 211.4 140.583C209.163 140.583 207.349 142.397 207.349 144.634C207.349 146.871 209.163 148.684 211.4 148.684Z" fill="#032E58"/>
<path d="M228.93 148.684C231.167 148.684 232.98 146.871 232.98 144.634C232.98 142.397 231.167 140.583 228.93 140.583C226.693 140.583 224.88 142.397 224.88 144.634C224.88 146.871 226.693 148.684 228.93 148.684Z" fill="#032E58"/>
<path d="M246.46 148.684C248.697 148.684 250.511 146.871 250.511 144.634C250.511 142.397 248.697 140.583 246.46 140.583C244.223 140.583 242.41 142.397 242.41 144.634C242.41 146.871 244.223 148.684 246.46 148.684Z" fill="#032E58"/>
<path d="M264.007 148.684C266.244 148.684 268.057 146.871 268.057 144.634C268.057 142.397 266.244 140.583 264.007 140.583C261.77 140.583 259.956 142.397 259.956 144.634C259.956 146.871 261.77 148.684 264.007 148.684Z" fill="#032E58"/>
<path d="M53.6115 166.247C55.8484 166.247 57.6619 164.433 57.6619 162.196C57.6619 159.959 55.8484 158.146 53.6115 158.146C51.3745 158.146 49.561 159.959 49.561 162.196C49.561 164.433 51.3745 166.247 53.6115 166.247Z" fill="#032E58"/>
<path d="M71.1578 166.247C73.3948 166.247 75.2083 164.433 75.2083 162.196C75.2083 159.959 73.3948 158.146 71.1578 158.146C68.9209 158.146 67.1074 159.959 67.1074 162.196C67.1074 164.433 68.9209 166.247 71.1578 166.247Z" fill="#032E58"/>
<path d="M106.218 166.247C108.455 166.247 110.269 164.433 110.269 162.196C110.269 159.959 108.455 158.146 106.218 158.146C103.981 158.146 102.168 159.959 102.168 162.196C102.168 164.433 103.981 166.247 106.218 166.247Z" fill="#032E58"/>
<path d="M123.748 166.247C125.985 166.247 127.799 164.433 127.799 162.196C127.799 159.959 125.985 158.146 123.748 158.146C121.511 158.146 119.698 159.959 119.698 162.196C119.698 164.433 121.511 166.247 123.748 166.247Z" fill="#032E58"/>
<path d="M141.279 166.247C143.516 166.247 145.329 164.433 145.329 162.196C145.329 159.959 143.516 158.146 141.279 158.146C139.042 158.146 137.228 159.959 137.228 162.196C137.228 164.433 139.042 166.247 141.279 166.247Z" fill="#032E58"/>
<path d="M158.809 166.247C161.046 166.247 162.859 164.433 162.859 162.196C162.859 159.959 161.046 158.146 158.809 158.146C156.572 158.146 154.759 159.959 154.759 162.196C154.759 164.433 156.572 166.247 158.809 166.247Z" fill="#032E58"/>
<path d="M176.339 166.247C178.576 166.247 180.39 164.433 180.39 162.196C180.39 159.959 178.576 158.146 176.339 158.146C174.102 158.146 172.289 159.959 172.289 162.196C172.289 164.433 174.102 166.247 176.339 166.247Z" fill="#032E58"/>
<path d="M193.869 166.247C196.106 166.247 197.92 164.433 197.92 162.196C197.92 159.959 196.106 158.146 193.869 158.146C191.632 158.146 189.819 159.959 189.819 162.196C189.819 164.433 191.632 166.247 193.869 166.247Z" fill="#032E58"/>
<path d="M211.4 166.247C213.637 166.247 215.45 164.433 215.45 162.196C215.45 159.959 213.637 158.146 211.4 158.146C209.163 158.146 207.349 159.959 207.349 162.196C207.349 164.433 209.163 166.247 211.4 166.247Z" fill="#032E58"/>
<path d="M228.93 166.247C231.167 166.247 232.98 164.433 232.98 162.196C232.98 159.959 231.167 158.146 228.93 158.146C226.693 158.146 224.88 159.959 224.88 162.196C224.88 164.433 226.693 166.247 228.93 166.247Z" fill="#032E58"/>
<path d="M246.46 166.247C248.697 166.247 250.511 164.433 250.511 162.196C250.511 159.959 248.697 158.146 246.46 158.146C244.223 158.146 242.41 159.959 242.41 162.196C242.41 164.433 244.223 166.247 246.46 166.247Z" fill="#032E58"/>
<path d="M264.007 166.247C266.244 166.247 268.057 164.433 268.057 162.196C268.057 159.959 266.244 158.146 264.007 158.146C261.77 158.146 259.956 159.959 259.956 162.196C259.956 164.433 261.77 166.247 264.007 166.247Z" fill="#032E58"/>
<path d="M71.1578 183.826C73.3948 183.826 75.2083 182.013 75.2083 179.776C75.2083 177.539 73.3948 175.725 71.1578 175.725C68.9209 175.725 67.1074 177.539 67.1074 179.776C67.1074 182.013 68.9209 183.826 71.1578 183.826Z" fill="#032E58"/>
<path d="M88.6881 183.826C90.9251 183.826 92.7385 182.013 92.7385 179.776C92.7385 177.539 90.9251 175.725 88.6881 175.725C86.4511 175.725 84.6377 177.539 84.6377 179.776C84.6377 182.013 86.4511 183.826 88.6881 183.826Z" fill="#032E58"/>
<path d="M88.6881 167.316C90.9251 167.316 92.7385 165.503 92.7385 163.266C92.7385 161.029 90.9251 159.216 88.6881 159.216C86.4511 159.216 84.6377 161.029 84.6377 163.266C84.6377 165.503 86.4511 167.316 88.6881 167.316Z" fill="#032E58"/>
<path d="M106.218 183.826C108.455 183.826 110.269 182.013 110.269 179.776C110.269 177.539 108.455 175.725 106.218 175.725C103.981 175.725 102.168 177.539 102.168 179.776C102.168 182.013 103.981 183.826 106.218 183.826Z" fill="#032E58"/>
<path d="M123.748 183.826C125.985 183.826 127.799 182.013 127.799 179.776C127.799 177.539 125.985 175.725 123.748 175.725C121.511 175.725 119.698 177.539 119.698 179.776C119.698 182.013 121.511 183.826 123.748 183.826Z" fill="#032E58"/>
<path d="M141.279 183.826C143.516 183.826 145.329 182.013 145.329 179.776C145.329 177.539 143.516 175.725 141.279 175.725C139.042 175.725 137.228 177.539 137.228 179.776C137.228 182.013 139.042 183.826 141.279 183.826Z" fill="#032E58"/>
<path d="M158.809 183.826C161.046 183.826 162.859 182.013 162.859 179.776C162.859 177.539 161.046 175.725 158.809 175.725C156.572 175.725 154.759 177.539 154.759 179.776C154.759 182.013 156.572 183.826 158.809 183.826Z" fill="#032E58"/>
<path d="M176.339 183.826C178.576 183.826 180.39 182.013 180.39 179.776C180.39 177.539 178.576 175.725 176.339 175.725C174.102 175.725 172.289 177.539 172.289 179.776C172.289 182.013 174.102 183.826 176.339 183.826Z" fill="#032E58"/>
<path d="M193.869 183.826C196.106 183.826 197.92 182.013 197.92 179.776C197.92 177.539 196.106 175.725 193.869 175.725C191.632 175.725 189.819 177.539 189.819 179.776C189.819 182.013 191.632 183.826 193.869 183.826Z" fill="#032E58"/>
<path d="M211.4 183.826C213.637 183.826 215.45 182.013 215.45 179.776C215.45 177.539 213.637 175.725 211.4 175.725C209.163 175.725 207.349 177.539 207.349 179.776C207.349 182.013 209.163 183.826 211.4 183.826Z" fill="#032E58"/>
<path d="M228.93 183.826C231.167 183.826 232.98 182.013 232.98 179.776C232.98 177.539 231.167 175.725 228.93 175.725C226.693 175.725 224.88 177.539 224.88 179.776C224.88 182.013 226.693 183.826 228.93 183.826Z" fill="#032E58"/>
<path d="M246.46 183.826C248.697 183.826 250.511 182.013 250.511 179.776C250.511 177.539 248.697 175.725 246.46 175.725C244.223 175.725 242.41 177.539 242.41 179.776C242.41 182.013 244.223 183.826 246.46 183.826Z" fill="#032E58"/>
<path d="M264.007 183.826C266.244 183.826 268.057 182.013 268.057 179.776C268.057 177.539 266.244 175.725 264.007 175.725C261.77 175.725 259.956 177.539 259.956 179.776C259.956 182.013 261.77 183.826 264.007 183.826Z" fill="#032E58"/>
<path d="M71.1578 201.389C73.3948 201.389 75.2083 199.575 75.2083 197.338C75.2083 195.101 73.3948 193.288 71.1578 193.288C68.9209 193.288 67.1074 195.101 67.1074 197.338C67.1074 199.575 68.9209 201.389 71.1578 201.389Z" fill="#032E58"/>
<path d="M88.6881 201.389C90.9251 201.389 92.7385 199.575 92.7385 197.338C92.7385 195.101 90.9251 193.288 88.6881 193.288C86.4511 193.288 84.6377 195.101 84.6377 197.338C84.6377 199.575 86.4511 201.389 88.6881 201.389Z" fill="#032E58"/>
<path d="M106.218 201.389C108.455 201.389 110.269 199.575 110.269 197.338C110.269 195.101 108.455 193.288 106.218 193.288C103.981 193.288 102.168 195.101 102.168 197.338C102.168 199.575 103.981 201.389 106.218 201.389Z" fill="#032E58"/>
<path d="M123.748 201.389C125.985 201.389 127.799 199.575 127.799 197.338C127.799 195.101 125.985 193.288 123.748 193.288C121.511 193.288 119.698 195.101 119.698 197.338C119.698 199.575 121.511 201.389 123.748 201.389Z" fill="#032E58"/>
<path d="M141.279 201.389C143.516 201.389 145.329 199.575 145.329 197.338C145.329 195.101 143.516 193.288 141.279 193.288C139.042 193.288 137.228 195.101 137.228 197.338C137.228 199.575 139.042 201.389 141.279 201.389Z" fill="#032E58"/>
<path d="M158.809 201.389C161.046 201.389 162.859 199.575 162.859 197.338C162.859 195.101 161.046 193.288 158.809 193.288C156.572 193.288 154.759 195.101 154.759 197.338C154.759 199.575 156.572 201.389 158.809 201.389Z" fill="#032E58"/>
<path d="M176.339 201.389C178.576 201.389 180.39 199.575 180.39 197.338C180.39 195.101 178.576 193.288 176.339 193.288C174.102 193.288 172.289 195.101 172.289 197.338C172.289 199.575 174.102 201.389 176.339 201.389Z" fill="#032E58"/>
<path d="M193.869 201.389C196.106 201.389 197.92 199.575 197.92 197.338C197.92 195.101 196.106 193.288 193.869 193.288C191.632 193.288 189.819 195.101 189.819 197.338C189.819 199.575 191.632 201.389 193.869 201.389Z" fill="#032E58"/>
<path d="M211.4 201.389C213.637 201.389 215.45 199.575 215.45 197.338C215.45 195.101 213.637 193.288 211.4 193.288C209.163 193.288 207.349 195.101 207.349 197.338C207.349 199.575 209.163 201.389 211.4 201.389Z" fill="#032E58"/>
<path d="M228.93 201.389C231.167 201.389 232.98 199.575 232.98 197.338C232.98 195.101 231.167 193.288 228.93 193.288C226.693 193.288 224.88 195.101 224.88 197.338C224.88 199.575 226.693 201.389 228.93 201.389Z" fill="#032E58"/>
<path d="M246.46 201.389C248.697 201.389 250.511 199.575 250.511 197.338C250.511 195.101 248.697 193.288 246.46 193.288C244.223 193.288 242.41 195.101 242.41 197.338C242.41 199.575 244.223 201.389 246.46 201.389Z" fill="#032E58"/>
<path d="M264.007 201.389C266.244 201.389 268.057 199.575 268.057 197.338C268.057 195.101 266.244 193.288 264.007 193.288C261.77 193.288 259.956 195.101 259.956 197.338C259.956 199.575 261.77 201.389 264.007 201.389Z" fill="#032E58"/>
<path d="M71.1578 218.968C73.3948 218.968 75.2083 217.154 75.2083 214.917C75.2083 212.68 73.3948 210.867 71.1578 210.867C68.9209 210.867 67.1074 212.68 67.1074 214.917C67.1074 217.154 68.9209 218.968 71.1578 218.968Z" fill="#032E58"/>
<path d="M88.6881 218.968C90.9251 218.968 92.7385 217.154 92.7385 214.917C92.7385 212.68 90.9251 210.867 88.6881 210.867C86.4511 210.867 84.6377 212.68 84.6377 214.917C84.6377 217.154 86.4511 218.968 88.6881 218.968Z" fill="#032E58"/>
<path d="M106.218 218.968C108.455 218.968 110.269 217.154 110.269 214.917C110.269 212.68 108.455 210.867 106.218 210.867C103.981 210.867 102.168 212.68 102.168 214.917C102.168 217.154 103.981 218.968 106.218 218.968Z" fill="#032E58"/>
<path d="M123.748 218.968C125.985 218.968 127.799 217.154 127.799 214.917C127.799 212.68 125.985 210.867 123.748 210.867C121.511 210.867 119.698 212.68 119.698 214.917C119.698 217.154 121.511 218.968 123.748 218.968Z" fill="#032E58"/>
<path d="M158.809 218.968C161.046 218.968 162.859 217.154 162.859 214.917C162.859 212.68 161.046 210.867 158.809 210.867C156.572 210.867 154.759 212.68 154.759 214.917C154.759 217.154 156.572 218.968 158.809 218.968Z" fill="#032E58"/>
<path d="M176.339 218.968C178.576 218.968 180.39 217.154 180.39 214.917C180.39 212.68 178.576 210.867 176.339 210.867C174.102 210.867 172.289 212.68 172.289 214.917C172.289 217.154 174.102 218.968 176.339 218.968Z" fill="#032E58"/>
<path d="M193.869 218.968C196.106 218.968 197.92 217.154 197.92 214.917C197.92 212.68 196.106 210.867 193.869 210.867C191.632 210.867 189.819 212.68 189.819 214.917C189.819 217.154 191.632 218.968 193.869 218.968Z" fill="#032E58"/>
<path d="M211.4 218.968C213.637 218.968 215.45 217.154 215.45 214.917C215.45 212.68 213.637 210.867 211.4 210.867C209.163 210.867 207.349 212.68 207.349 214.917C207.349 217.154 209.163 218.968 211.4 218.968Z" fill="#032E58"/>
<path d="M228.93 218.968C231.167 218.968 232.98 217.154 232.98 214.917C232.98 212.68 231.167 210.867 228.93 210.867C226.693 210.867 224.88 212.68 224.88 214.917C224.88 217.154 226.693 218.968 228.93 218.968Z" fill="#032E58"/>
<path d="M246.46 218.968C248.697 218.968 250.511 217.154 250.511 214.917C250.511 212.68 248.697 210.867 246.46 210.867C244.223 210.867 242.41 212.68 242.41 214.917C242.41 217.154 244.223 218.968 246.46 218.968Z" fill="#032E58"/>
<path d="M264.007 218.968C266.244 218.968 268.057 217.154 268.057 214.917C268.057 212.68 266.244 210.867 264.007 210.867C261.77 210.867 259.956 212.68 259.956 214.917C259.956 217.154 261.77 218.968 264.007 218.968Z" fill="#032E58"/>
<path d="M53.6115 236.547C55.8484 236.547 57.6619 234.733 57.6619 232.496C57.6619 230.259 55.8484 228.446 53.6115 228.446C51.3745 228.446 49.561 230.259 49.561 232.496C49.561 234.733 51.3745 236.547 53.6115 236.547Z" fill="#032E58"/>
<path d="M53.6115 218.968C55.8484 218.968 57.6619 217.154 57.6619 214.917C57.6619 212.68 55.8484 210.867 53.6115 210.867C51.3745 210.867 49.561 212.68 49.561 214.917C49.561 217.154 51.3745 218.968 53.6115 218.968Z" fill="#032E58"/>
<path d="M71.1578 236.547C73.3948 236.547 75.2083 234.733 75.2083 232.496C75.2083 230.259 73.3948 228.446 71.1578 228.446C68.9209 228.446 67.1074 230.259 67.1074 232.496C67.1074 234.733 68.9209 236.547 71.1578 236.547Z" fill="#032E58"/>
<path d="M88.6881 236.547C90.9251 236.547 92.7385 234.733 92.7385 232.496C92.7385 230.259 90.9251 228.446 88.6881 228.446C86.4511 228.446 84.6377 230.259 84.6377 232.496C84.6377 234.733 86.4511 236.547 88.6881 236.547Z" fill="#032E58"/>
<path d="M123.748 236.547C125.985 236.547 127.799 234.733 127.799 232.496C127.799 230.259 125.985 228.446 123.748 228.446C121.511 228.446 119.698 230.259 119.698 232.496C119.698 234.733 121.511 236.547 123.748 236.547Z" fill="#032E58"/>
<path d="M141.279 236.547C143.516 236.547 145.329 234.733 145.329 232.496C145.329 230.259 143.516 228.446 141.279 228.446C139.042 228.446 137.228 230.259 137.228 232.496C137.228 234.733 139.042 236.547 141.279 236.547Z" fill="#032E58"/>
<path d="M141.279 252.587C143.516 252.587 145.329 250.773 145.329 248.536C145.329 246.299 143.516 244.486 141.279 244.486C139.042 244.486 137.228 246.299 137.228 248.536C137.228 250.773 139.042 252.587 141.279 252.587Z" fill="#032E58"/>
<path d="M158.809 236.547C161.046 236.547 162.859 234.733 162.859 232.496C162.859 230.259 161.046 228.446 158.809 228.446C156.572 228.446 154.759 230.259 154.759 232.496C154.759 234.733 156.572 236.547 158.809 236.547Z" fill="#032E58"/>
<path d="M158.809 252.587C161.046 252.587 162.859 250.773 162.859 248.536C162.859 246.299 161.046 244.486 158.809 244.486C156.572 244.486 154.759 246.299 154.759 248.536C154.759 250.773 156.572 252.587 158.809 252.587Z" fill="#032E58"/>
<path d="M176.339 236.547C178.576 236.547 180.39 234.733 180.39 232.496C180.39 230.259 178.576 228.446 176.339 228.446C174.102 228.446 172.289 230.259 172.289 232.496C172.289 234.733 174.102 236.547 176.339 236.547Z" fill="#032E58"/>
<path d="M176.339 253.478C178.576 253.478 180.39 251.664 180.39 249.427C180.39 247.19 178.576 245.377 176.339 245.377C174.102 245.377 172.289 247.19 172.289 249.427C172.289 251.664 174.102 253.478 176.339 253.478Z" fill="#032E58"/>
<path d="M193.869 253.478C196.106 253.478 197.92 251.664 197.92 249.427C197.92 247.19 196.106 245.377 193.869 245.377C191.632 245.377 189.819 247.19 189.819 249.427C189.819 251.664 191.632 253.478 193.869 253.478Z" fill="#032E58"/>
<path d="M193.869 277.246C196.106 277.246 197.92 275.432 197.92 273.195C197.92 270.958 196.106 269.145 193.869 269.145C191.632 269.145 189.819 270.958 189.819 273.195C189.819 275.432 191.632 277.246 193.869 277.246Z" fill="#032E58"/>
<path d="M193.869 236.547C196.106 236.547 197.92 234.733 197.92 232.496C197.92 230.259 196.106 228.446 193.869 228.446C191.632 228.446 189.819 230.259 189.819 232.496C189.819 234.733 191.632 236.547 193.869 236.547Z" fill="#032E58"/>
<path d="M211.4 236.547C213.637 236.547 215.45 234.733 215.45 232.496C215.45 230.259 213.637 228.446 211.4 228.446C209.163 228.446 207.349 230.259 207.349 232.496C207.349 234.733 209.163 236.547 211.4 236.547Z" fill="#032E58"/>
<path d="M228.93 236.547C231.167 236.547 232.98 234.733 232.98 232.496C232.98 230.259 231.167 228.446 228.93 228.446C226.693 228.446 224.88 230.259 224.88 232.496C224.88 234.733 226.693 236.547 228.93 236.547Z" fill="#032E58"/>
<path d="M246.46 236.547C248.697 236.547 250.511 234.733 250.511 232.496C250.511 230.259 248.697 228.446 246.46 228.446C244.223 228.446 242.41 230.259 242.41 232.496C242.41 234.733 244.223 236.547 246.46 236.547Z" fill="#032E58"/>
<path d="M264.007 236.547C266.244 236.547 268.057 234.733 268.057 232.496C268.057 230.259 266.244 228.446 264.007 228.446C261.77 228.446 259.956 230.259 259.956 232.496C259.956 234.733 261.77 236.547 264.007 236.547Z" fill="#032E58"/>
<path d="M88.6881 254.109C90.9251 254.109 92.7385 252.296 92.7385 250.059C92.7385 247.822 90.9251 246.009 88.6881 246.009C86.4511 246.009 84.6377 247.822 84.6377 250.059C84.6377 252.296 86.4511 254.109 88.6881 254.109Z" fill="#032E58"/>
<path d="M106.218 254.109C108.455 254.109 110.269 252.296 110.269 250.059C110.269 247.822 108.455 246.009 106.218 246.009C103.981 246.009 102.168 247.822 102.168 250.059C102.168 252.296 103.981 254.109 106.218 254.109Z" fill="#032E58"/>
<path d="M211.4 254.109C213.637 254.109 215.45 252.296 215.45 250.059C215.45 247.822 213.637 246.009 211.4 246.009C209.163 246.009 207.349 247.822 207.349 250.059C207.349 252.296 209.163 254.109 211.4 254.109Z" fill="#032E58"/>
<path d="M228.93 254.109C231.167 254.109 232.98 252.296 232.98 250.059C232.98 247.822 231.167 246.009 228.93 246.009C226.693 246.009 224.88 247.822 224.88 250.059C224.88 252.296 226.693 254.109 228.93 254.109Z" fill="#032E58"/>
<path d="M246.46 254.109C248.697 254.109 250.511 252.296 250.511 250.059C250.511 247.822 248.697 246.009 246.46 246.009C244.223 246.009 242.41 247.822 242.41 250.059C242.41 252.296 244.223 254.109 246.46 254.109Z" fill="#032E58"/>
<path d="M264.007 254.109C266.244 254.109 268.057 252.296 268.057 250.059C268.057 247.822 266.244 246.009 264.007 246.009C261.77 246.009 259.956 247.822 259.956 250.059C259.956 252.296 261.77 254.109 264.007 254.109Z" fill="#032E58"/>
<path d="M53.6115 271.689C55.8484 271.689 57.6619 269.875 57.6619 267.638C57.6619 265.401 55.8484 263.588 53.6115 263.588C51.3745 263.588 49.561 265.401 49.561 267.638C49.561 269.875 51.3745 271.689 53.6115 271.689Z" fill="#032E58"/>
<path d="M71.1578 271.689C73.3948 271.689 75.2083 269.875 75.2083 267.638C75.2083 265.401 73.3948 263.588 71.1578 263.588C68.9209 263.588 67.1074 265.401 67.1074 267.638C67.1074 269.875 68.9209 271.689 71.1578 271.689Z" fill="#032E58"/>
<path d="M88.6881 271.689C90.9251 271.689 92.7385 269.875 92.7385 267.638C92.7385 265.401 90.9251 263.588 88.6881 263.588C86.4511 263.588 84.6377 265.401 84.6377 267.638C84.6377 269.875 86.4511 271.689 88.6881 271.689Z" fill="#032E58"/>
<path d="M106.218 271.689C108.455 271.689 110.269 269.875 110.269 267.638C110.269 265.401 108.455 263.588 106.218 263.588C103.981 263.588 102.168 265.401 102.168 267.638C102.168 269.875 103.981 271.689 106.218 271.689Z" fill="#032E58"/>
<path d="M123.748 271.689C125.985 271.689 127.799 269.875 127.799 267.638C127.799 265.401 125.985 263.588 123.748 263.588C121.511 263.588 119.698 265.401 119.698 267.638C119.698 269.875 121.511 271.689 123.748 271.689Z" fill="#032E58"/>
<path d="M211.4 271.689C213.637 271.689 215.45 269.875 215.45 267.638C215.45 265.401 213.637 263.588 211.4 263.588C209.163 263.588 207.349 265.401 207.349 267.638C207.349 269.875 209.163 271.689 211.4 271.689Z" fill="#032E58"/>
<path d="M228.93 271.689C231.167 271.689 232.98 269.875 232.98 267.638C232.98 265.401 231.167 263.588 228.93 263.588C226.693 263.588 224.88 265.401 224.88 267.638C224.88 269.875 226.693 271.689 228.93 271.689Z" fill="#032E58"/>
<path d="M246.46 271.689C248.697 271.689 250.511 269.875 250.511 267.638C250.511 265.401 248.697 263.588 246.46 263.588C244.223 263.588 242.41 265.401 242.41 267.638C242.41 269.875 244.223 271.689 246.46 271.689Z" fill="#032E58"/>
<path d="M264.007 271.689C266.244 271.689 268.057 269.875 268.057 267.638C268.057 265.401 266.244 263.588 264.007 263.588C261.77 263.588 259.956 265.401 259.956 267.638C259.956 269.875 261.77 271.689 264.007 271.689Z" fill="#032E58"/>
<path d="M53.6115 289.252C55.8484 289.252 57.6619 287.438 57.6619 285.201C57.6619 282.964 55.8484 281.151 53.6115 281.151C51.3745 281.151 49.561 282.964 49.561 285.201C49.561 287.438 51.3745 289.252 53.6115 289.252Z" fill="#032E58"/>
<path d="M71.1578 289.252C73.3948 289.252 75.2083 287.438 75.2083 285.201C75.2083 282.964 73.3948 281.151 71.1578 281.151C68.9209 281.151 67.1074 282.964 67.1074 285.201C67.1074 287.438 68.9209 289.252 71.1578 289.252Z" fill="#032E58"/>
<path d="M88.6881 289.252C90.9251 289.252 92.7385 287.438 92.7385 285.201C92.7385 282.964 90.9251 281.151 88.6881 281.151C86.4511 281.151 84.6377 282.964 84.6377 285.201C84.6377 287.438 86.4511 289.252 88.6881 289.252Z" fill="#032E58"/>
<path d="M106.218 289.252C108.455 289.252 110.269 287.438 110.269 285.201C110.269 282.964 108.455 281.151 106.218 281.151C103.981 281.151 102.168 282.964 102.168 285.201C102.168 287.438 103.981 289.252 106.218 289.252Z" fill="#032E58"/>
<path d="M123.748 289.252C125.985 289.252 127.799 287.438 127.799 285.201C127.799 282.964 125.985 281.151 123.748 281.151C121.511 281.151 119.698 282.964 119.698 285.201C119.698 287.438 121.511 289.252 123.748 289.252Z" fill="#032E58"/>
<path d="M141.279 289.252C143.516 289.252 145.329 287.438 145.329 285.201C145.329 282.964 143.516 281.151 141.279 281.151C139.042 281.151 137.228 282.964 137.228 285.201C137.228 287.438 139.042 289.252 141.279 289.252Z" fill="#032E58"/>
<path d="M158.809 289.252C161.046 289.252 162.859 287.438 162.859 285.201C162.859 282.964 161.046 281.151 158.809 281.151C156.572 281.151 154.759 282.964 154.759 285.201C154.759 287.438 156.572 289.252 158.809 289.252Z" fill="#032E58"/>
<path d="M158.809 273.195C161.046 273.195 162.859 271.382 162.859 269.145C162.859 266.908 161.046 265.094 158.809 265.094C156.572 265.094 154.759 266.908 154.759 269.145C154.759 271.382 156.572 273.195 158.809 273.195Z" fill="#032E58"/>
<path d="M176.339 289.252C178.576 289.252 180.39 287.438 180.39 285.201C180.39 282.964 178.576 281.151 176.339 281.151C174.102 281.151 172.289 282.964 172.289 285.201C172.289 287.438 174.102 289.252 176.339 289.252Z" fill="#032E58"/>
<path d="M193.869 289.252C196.106 289.252 197.92 287.438 197.92 285.201C197.92 282.964 196.106 281.151 193.869 281.151C191.632 281.151 189.819 282.964 189.819 285.201C189.819 287.438 191.632 289.252 193.869 289.252Z" fill="#032E58"/>
<path d="M211.4 289.252C213.637 289.252 215.45 287.438 215.45 285.201C215.45 282.964 213.637 281.151 211.4 281.151C209.163 281.151 207.349 282.964 207.349 285.201C207.349 287.438 209.163 289.252 211.4 289.252Z" fill="#032E58"/>
<path d="M228.93 289.252C231.167 289.252 232.98 287.438 232.98 285.201C232.98 282.964 231.167 281.151 228.93 281.151C226.693 281.151 224.88 282.964 224.88 285.201C224.88 287.438 226.693 289.252 228.93 289.252Z" fill="#032E58"/>
<path d="M246.46 289.252C248.697 289.252 250.511 287.438 250.511 285.201C250.511 282.964 248.697 281.151 246.46 281.151C244.223 281.151 242.41 282.964 242.41 285.201C242.41 287.438 244.223 289.252 246.46 289.252Z" fill="#032E58"/>
<path d="M36.0812 306.83C38.3182 306.83 40.1316 305.017 40.1316 302.78C40.1316 300.543 38.3182 298.729 36.0812 298.729C33.8442 298.729 32.0308 300.543 32.0308 302.78C32.0308 305.017 33.8442 306.83 36.0812 306.83Z" fill="#032E58"/>
<path d="M53.6115 306.83C55.8484 306.83 57.6619 305.017 57.6619 302.78C57.6619 300.543 55.8484 298.729 53.6115 298.729C51.3745 298.729 49.561 300.543 49.561 302.78C49.561 305.017 51.3745 306.83 53.6115 306.83Z" fill="#032E58"/>
<path d="M71.1578 306.83C73.3948 306.83 75.2083 305.017 75.2083 302.78C75.2083 300.543 73.3948 298.729 71.1578 298.729C68.9209 298.729 67.1074 300.543 67.1074 302.78C67.1074 305.017 68.9209 306.83 71.1578 306.83Z" fill="#032E58"/>
<path d="M88.6881 306.83C90.9251 306.83 92.7385 305.017 92.7385 302.78C92.7385 300.543 90.9251 298.729 88.6881 298.729C86.4511 298.729 84.6377 300.543 84.6377 302.78C84.6377 305.017 86.4511 306.83 88.6881 306.83Z" fill="#032E58"/>
<path d="M106.218 306.83C108.455 306.83 110.269 305.017 110.269 302.78C110.269 300.543 108.455 298.729 106.218 298.729C103.981 298.729 102.168 300.543 102.168 302.78C102.168 305.017 103.981 306.83 106.218 306.83Z" fill="#032E58"/>
<path d="M123.748 306.83C125.985 306.83 127.799 305.017 127.799 302.78C127.799 300.543 125.985 298.729 123.748 298.729C121.511 298.729 119.698 300.543 119.698 302.78C119.698 305.017 121.511 306.83 123.748 306.83Z" fill="#032E58"/>
<path d="M141.279 306.83C143.516 306.83 145.329 305.017 145.329 302.78C145.329 300.543 143.516 298.729 141.279 298.729C139.042 298.729 137.228 300.543 137.228 302.78C137.228 305.017 139.042 306.83 141.279 306.83Z" fill="#032E58"/>
<path d="M158.809 306.83C161.046 306.83 162.859 305.017 162.859 302.78C162.859 300.543 161.046 298.729 158.809 298.729C156.572 298.729 154.759 300.543 154.759 302.78C154.759 305.017 156.572 306.83 158.809 306.83Z" fill="#032E58"/>
<path d="M176.339 306.83C178.576 306.83 180.39 305.017 180.39 302.78C180.39 300.543 178.576 298.729 176.339 298.729C174.102 298.729 172.289 300.543 172.289 302.78C172.289 305.017 174.102 306.83 176.339 306.83Z" fill="#032E58"/>
<path d="M193.869 306.83C196.106 306.83 197.92 305.017 197.92 302.78C197.92 300.543 196.106 298.729 193.869 298.729C191.632 298.729 189.819 300.543 189.819 302.78C189.819 305.017 191.632 306.83 193.869 306.83Z" fill="#032E58"/>
<path d="M228.93 306.83C231.167 306.83 232.98 305.017 232.98 302.78C232.98 300.543 231.167 298.729 228.93 298.729C226.693 298.729 224.88 300.543 224.88 302.78C224.88 305.017 226.693 306.83 228.93 306.83Z" fill="#032E58"/>
<path d="M246.46 306.83C248.697 306.83 250.511 305.017 250.511 302.78C250.511 300.543 248.697 298.729 246.46 298.729C244.223 298.729 242.41 300.543 242.41 302.78C242.41 305.017 244.223 306.83 246.46 306.83Z" fill="#032E58"/>
<path d="M264.007 306.83C266.244 306.83 268.057 305.017 268.057 302.78C268.057 300.543 266.244 298.729 264.007 298.729C261.77 298.729 259.956 300.543 259.956 302.78C259.956 305.017 261.77 306.83 264.007 306.83Z" fill="#032E58"/>
<path d="M36.0812 324.41C38.3182 324.41 40.1316 322.596 40.1316 320.359C40.1316 318.122 38.3182 316.309 36.0812 316.309C33.8442 316.309 32.0308 318.122 32.0308 320.359C32.0308 322.596 33.8442 324.41 36.0812 324.41Z" fill="#032E58"/>
<path d="M53.6115 324.41C55.8484 324.41 57.6619 322.596 57.6619 320.359C57.6619 318.122 55.8484 316.309 53.6115 316.309C51.3745 316.309 49.561 318.122 49.561 320.359C49.561 322.596 51.3745 324.41 53.6115 324.41Z" fill="#032E58"/>
<path d="M71.1578 324.41C73.3948 324.41 75.2083 322.596 75.2083 320.359C75.2083 318.122 73.3948 316.309 71.1578 316.309C68.9209 316.309 67.1074 318.122 67.1074 320.359C67.1074 322.596 68.9209 324.41 71.1578 324.41Z" fill="#032E58"/>
<path d="M88.6881 324.41C90.9251 324.41 92.7385 322.596 92.7385 320.359C92.7385 318.122 90.9251 316.309 88.6881 316.309C86.4511 316.309 84.6377 318.122 84.6377 320.359C84.6377 322.596 86.4511 324.41 88.6881 324.41Z" fill="#032E58"/>
<path d="M106.218 324.41C108.455 324.41 110.269 322.596 110.269 320.359C110.269 318.122 108.455 316.309 106.218 316.309C103.981 316.309 102.168 318.122 102.168 320.359C102.168 322.596 103.981 324.41 106.218 324.41Z" fill="#032E58"/>
<path d="M123.748 324.41C125.985 324.41 127.799 322.596 127.799 320.359C127.799 318.122 125.985 316.309 123.748 316.309C121.511 316.309 119.698 318.122 119.698 320.359C119.698 322.596 121.511 324.41 123.748 324.41Z" fill="#032E58"/>
<path d="M141.279 324.41C143.516 324.41 145.329 322.596 145.329 320.359C145.329 318.122 143.516 316.309 141.279 316.309C139.042 316.309 137.228 318.122 137.228 320.359C137.228 322.596 139.042 324.41 141.279 324.41Z" fill="#032E58"/>
<path d="M158.809 324.41C161.046 324.41 162.859 322.596 162.859 320.359C162.859 318.122 161.046 316.309 158.809 316.309C156.572 316.309 154.759 318.122 154.759 320.359C154.759 322.596 156.572 324.41 158.809 324.41Z" fill="#032E58"/>
<path d="M176.339 324.41C178.576 324.41 180.39 322.596 180.39 320.359C180.39 318.122 178.576 316.309 176.339 316.309C174.102 316.309 172.289 318.122 172.289 320.359C172.289 322.596 174.102 324.41 176.339 324.41Z" fill="#032E58"/>
<path d="M193.869 324.41C196.106 324.41 197.92 322.596 197.92 320.359C197.92 318.122 196.106 316.309 193.869 316.309C191.632 316.309 189.819 318.122 189.819 320.359C189.819 322.596 191.632 324.41 193.869 324.41Z" fill="#032E58"/>
<path d="M228.93 324.41C231.167 324.41 232.98 322.596 232.98 320.359C232.98 318.122 231.167 316.309 228.93 316.309C226.693 316.309 224.88 318.122 224.88 320.359C224.88 322.596 226.693 324.41 228.93 324.41Z" fill="#032E58"/>
<path d="M246.46 324.41C248.697 324.41 250.511 322.596 250.511 320.359C250.511 318.122 248.697 316.309 246.46 316.309C244.223 316.309 242.41 318.122 242.41 320.359C242.41 322.596 244.223 324.41 246.46 324.41Z" fill="#032E58"/>
<path d="M264.007 324.41C266.244 324.41 268.057 322.596 268.057 320.359C268.057 318.122 266.244 316.309 264.007 316.309C261.77 316.309 259.956 318.122 259.956 320.359C259.956 322.596 261.77 324.41 264.007 324.41Z" fill="#032E58"/>
<path d="M36.0812 341.972C38.3182 341.972 40.1316 340.159 40.1316 337.922C40.1316 335.685 38.3182 333.871 36.0812 333.871C33.8442 333.871 32.0308 335.685 32.0308 337.922C32.0308 340.159 33.8442 341.972 36.0812 341.972Z" fill="#032E58"/>
<path d="M4.05042 341.972C6.28741 341.972 8.10085 340.159 8.10085 337.922C8.10085 335.685 6.28741 333.871 4.05042 333.871C1.81344 333.871 0 335.685 0 337.922C0 340.159 1.81344 341.972 4.05042 341.972Z" fill="#032E58"/>
<path d="M53.6115 341.972C55.8484 341.972 57.6619 340.159 57.6619 337.922C57.6619 335.685 55.8484 333.871 53.6115 333.871C51.3745 333.871 49.561 335.685 49.561 337.922C49.561 340.159 51.3745 341.972 53.6115 341.972Z" fill="#032E58"/>
<path d="M71.1578 341.972C73.3948 341.972 75.2083 340.159 75.2083 337.922C75.2083 335.685 73.3948 333.871 71.1578 333.871C68.9209 333.871 67.1074 335.685 67.1074 337.922C67.1074 340.159 68.9209 341.972 71.1578 341.972Z" fill="#032E58"/>
<path d="M88.6881 341.972C90.9251 341.972 92.7385 340.159 92.7385 337.922C92.7385 335.685 90.9251 333.871 88.6881 333.871C86.4511 333.871 84.6377 335.685 84.6377 337.922C84.6377 340.159 86.4511 341.972 88.6881 341.972Z" fill="#032E58"/>
<path d="M106.218 341.972C108.455 341.972 110.269 340.159 110.269 337.922C110.269 335.685 108.455 333.871 106.218 333.871C103.981 333.871 102.168 335.685 102.168 337.922C102.168 340.159 103.981 341.972 106.218 341.972Z" fill="#032E58"/>
<path d="M123.748 341.972C125.985 341.972 127.799 340.159 127.799 337.922C127.799 335.685 125.985 333.871 123.748 333.871C121.511 333.871 119.698 335.685 119.698 337.922C119.698 340.159 121.511 341.972 123.748 341.972Z" fill="#032E58"/>
<path d="M141.279 341.972C143.516 341.972 145.329 340.159 145.329 337.922C145.329 335.685 143.516 333.871 141.279 333.871C139.042 333.871 137.228 335.685 137.228 337.922C137.228 340.159 139.042 341.972 141.279 341.972Z" fill="#032E58"/>
<path d="M158.809 341.972C161.046 341.972 162.859 340.159 162.859 337.922C162.859 335.685 161.046 333.871 158.809 333.871C156.572 333.871 154.759 335.685 154.759 337.922C154.759 340.159 156.572 341.972 158.809 341.972Z" fill="#032E58"/>
<path d="M176.339 341.972C178.576 341.972 180.39 340.159 180.39 337.922C180.39 335.685 178.576 333.871 176.339 333.871C174.102 333.871 172.289 335.685 172.289 337.922C172.289 340.159 174.102 341.972 176.339 341.972Z" fill="#032E58"/>
<path d="M193.869 341.972C196.106 341.972 197.92 340.159 197.92 337.922C197.92 335.685 196.106 333.871 193.869 333.871C191.632 333.871 189.819 335.685 189.819 337.922C189.819 340.159 191.632 341.972 193.869 341.972Z" fill="#032E58"/>
<path d="M211.4 341.972C213.637 341.972 215.45 340.159 215.45 337.922C215.45 335.685 213.637 333.871 211.4 333.871C209.163 333.871 207.349 335.685 207.349 337.922C207.349 340.159 209.163 341.972 211.4 341.972Z" fill="#032E58"/>
<path d="M246.46 341.972C248.697 341.972 250.511 340.159 250.511 337.922C250.511 335.685 248.697 333.871 246.46 333.871C244.223 333.871 242.41 335.685 242.41 337.922C242.41 340.159 244.223 341.972 246.46 341.972Z" fill="#032E58"/>
<path d="M264.007 341.972C266.244 341.972 268.057 340.159 268.057 337.922C268.057 335.685 266.244 333.871 264.007 333.871C261.77 333.871 259.956 335.685 259.956 337.922C259.956 340.159 261.77 341.972 264.007 341.972Z" fill="#032E58"/>
<path d="M36.0812 359.551C38.3182 359.551 40.1316 357.738 40.1316 355.501C40.1316 353.264 38.3182 351.45 36.0812 351.45C33.8442 351.45 32.0308 353.264 32.0308 355.501C32.0308 357.738 33.8442 359.551 36.0812 359.551Z" fill="#032E58"/>
<path d="M53.6115 359.551C55.8484 359.551 57.6619 357.738 57.6619 355.501C57.6619 353.264 55.8484 351.45 53.6115 351.45C51.3745 351.45 49.561 353.264 49.561 355.501C49.561 357.738 51.3745 359.551 53.6115 359.551Z" fill="#032E58"/>
<path d="M71.1578 359.551C73.3948 359.551 75.2083 357.738 75.2083 355.501C75.2083 353.264 73.3948 351.45 71.1578 351.45C68.9209 351.45 67.1074 353.264 67.1074 355.501C67.1074 357.738 68.9209 359.551 71.1578 359.551Z" fill="#032E58"/>
<path d="M88.6881 359.551C90.9251 359.551 92.7385 357.738 92.7385 355.501C92.7385 353.264 90.9251 351.45 88.6881 351.45C86.4511 351.45 84.6377 353.264 84.6377 355.501C84.6377 357.738 86.4511 359.551 88.6881 359.551Z" fill="#032E58"/>
<path d="M106.218 359.551C108.455 359.551 110.269 357.738 110.269 355.501C110.269 353.264 108.455 351.45 106.218 351.45C103.981 351.45 102.168 353.264 102.168 355.501C102.168 357.738 103.981 359.551 106.218 359.551Z" fill="#032E58"/>
<path d="M123.748 359.551C125.985 359.551 127.799 357.738 127.799 355.501C127.799 353.264 125.985 351.45 123.748 351.45C121.511 351.45 119.698 353.264 119.698 355.501C119.698 357.738 121.511 359.551 123.748 359.551Z" fill="#032E58"/>
<path d="M141.279 359.551C143.516 359.551 145.329 357.738 145.329 355.501C145.329 353.264 143.516 351.45 141.279 351.45C139.042 351.45 137.228 353.264 137.228 355.501C137.228 357.738 139.042 359.551 141.279 359.551Z" fill="#032E58"/>
<path d="M158.809 359.551C161.046 359.551 162.859 357.738 162.859 355.501C162.859 353.264 161.046 351.45 158.809 351.45C156.572 351.45 154.759 353.264 154.759 355.501C154.759 357.738 156.572 359.551 158.809 359.551Z" fill="#032E58"/>
<path d="M176.339 359.551C178.576 359.551 180.39 357.738 180.39 355.501C180.39 353.264 178.576 351.45 176.339 351.45C174.102 351.45 172.289 353.264 172.289 355.501C172.289 357.738 174.102 359.551 176.339 359.551Z" fill="#032E58"/>
<path d="M193.869 359.551C196.106 359.551 197.92 357.738 197.92 355.501C197.92 353.264 196.106 351.45 193.869 351.45C191.632 351.45 189.819 353.264 189.819 355.501C189.819 357.738 191.632 359.551 193.869 359.551Z" fill="#032E58"/>
<path d="M211.4 359.551C213.637 359.551 215.45 357.738 215.45 355.501C215.45 353.264 213.637 351.45 211.4 351.45C209.163 351.45 207.349 353.264 207.349 355.501C207.349 357.738 209.163 359.551 211.4 359.551Z" fill="#032E58"/>
<path d="M36.0812 377.13C38.3182 377.13 40.1316 375.317 40.1316 373.08C40.1316 370.843 38.3182 369.029 36.0812 369.029C33.8442 369.029 32.0308 370.843 32.0308 373.08C32.0308 375.317 33.8442 377.13 36.0812 377.13Z" fill="#032E58"/>
<path d="M53.6115 377.13C55.8484 377.13 57.6619 375.317 57.6619 373.08C57.6619 370.843 55.8484 369.029 53.6115 369.029C51.3745 369.029 49.561 370.843 49.561 373.08C49.561 375.317 51.3745 377.13 53.6115 377.13Z" fill="#032E58"/>
<path d="M71.1578 377.13C73.3948 377.13 75.2083 375.317 75.2083 373.08C75.2083 370.843 73.3948 369.029 71.1578 369.029C68.9209 369.029 67.1074 370.843 67.1074 373.08C67.1074 375.317 68.9209 377.13 71.1578 377.13Z" fill="#032E58"/>
<path d="M88.6881 377.13C90.9251 377.13 92.7385 375.317 92.7385 373.08C92.7385 370.843 90.9251 369.029 88.6881 369.029C86.4511 369.029 84.6377 370.843 84.6377 373.08C84.6377 375.317 86.4511 377.13 88.6881 377.13Z" fill="#032E58"/>
<path d="M106.218 377.13C108.455 377.13 110.269 375.317 110.269 373.08C110.269 370.843 108.455 369.029 106.218 369.029C103.981 369.029 102.168 370.843 102.168 373.08C102.168 375.317 103.981 377.13 106.218 377.13Z" fill="#032E58"/>
<path d="M123.748 377.13C125.985 377.13 127.799 375.317 127.799 373.08C127.799 370.843 125.985 369.029 123.748 369.029C121.511 369.029 119.698 370.843 119.698 373.08C119.698 375.317 121.511 377.13 123.748 377.13Z" fill="#032E58"/>
<path d="M141.279 377.13C143.516 377.13 145.329 375.317 145.329 373.08C145.329 370.843 143.516 369.029 141.279 369.029C139.042 369.029 137.228 370.843 137.228 373.08C137.228 375.317 139.042 377.13 141.279 377.13Z" fill="#032E58"/>
<path d="M158.809 377.13C161.046 377.13 162.859 375.317 162.859 373.08C162.859 370.843 161.046 369.029 158.809 369.029C156.572 369.029 154.759 370.843 154.759 373.08C154.759 375.317 156.572 377.13 158.809 377.13Z" fill="#032E58"/>
<path d="M176.339 377.13C178.576 377.13 180.39 375.317 180.39 373.08C180.39 370.843 178.576 369.029 176.339 369.029C174.102 369.029 172.289 370.843 172.289 373.08C172.289 375.317 174.102 377.13 176.339 377.13Z" fill="#032E58"/>
<path d="M193.869 377.13C196.106 377.13 197.92 375.317 197.92 373.08C197.92 370.843 196.106 369.029 193.869 369.029C191.632 369.029 189.819 370.843 189.819 373.08C189.819 375.317 191.632 377.13 193.869 377.13Z" fill="#032E58"/>
<path d="M211.4 377.13C213.637 377.13 215.45 375.317 215.45 373.08C215.45 370.843 213.637 369.029 211.4 369.029C209.163 369.029 207.349 370.843 207.349 373.08C207.349 375.317 209.163 377.13 211.4 377.13Z" fill="#032E58"/>
<path d="M228.93 377.13C231.167 377.13 232.98 375.317 232.98 373.08C232.98 370.843 231.167 369.029 228.93 369.029C226.693 369.029 224.88 370.843 224.88 373.08C224.88 375.317 226.693 377.13 228.93 377.13Z" fill="#032E58"/>
<path d="M246.46 377.13C248.697 377.13 250.511 375.317 250.511 373.08C250.511 370.843 248.697 369.029 246.46 369.029C244.223 369.029 242.41 370.843 242.41 373.08C242.41 375.317 244.223 377.13 246.46 377.13Z" fill="#032E58"/>
<path d="M123.748 394.693C125.985 394.693 127.799 392.88 127.799 390.643C127.799 388.405 125.985 386.592 123.748 386.592C121.511 386.592 119.698 388.405 119.698 390.643C119.698 392.88 121.511 394.693 123.748 394.693Z" fill="#032E58"/>
<path d="M141.279 394.693C143.516 394.693 145.329 392.88 145.329 390.643C145.329 388.405 143.516 386.592 141.279 386.592C139.042 386.592 137.228 388.405 137.228 390.643C137.228 392.88 139.042 394.693 141.279 394.693Z" fill="#032E58"/>
<path d="M158.809 394.693C161.046 394.693 162.859 392.88 162.859 390.643C162.859 388.405 161.046 386.592 158.809 386.592C156.572 386.592 154.759 388.405 154.759 390.643C154.759 392.88 156.572 394.693 158.809 394.693Z" fill="#032E58"/>
<path d="M176.339 394.693C178.576 394.693 180.39 392.88 180.39 390.643C180.39 388.405 178.576 386.592 176.339 386.592C174.102 386.592 172.289 388.405 172.289 390.643C172.289 392.88 174.102 394.693 176.339 394.693Z" fill="#032E58"/>
<path d="M193.869 394.693C196.106 394.693 197.92 392.88 197.92 390.643C197.92 388.405 196.106 386.592 193.869 386.592C191.632 386.592 189.819 388.405 189.819 390.643C189.819 392.88 191.632 394.693 193.869 394.693Z" fill="#032E58"/>
<path d="M211.4 394.693C213.637 394.693 215.45 392.88 215.45 390.643C215.45 388.405 213.637 386.592 211.4 386.592C209.163 386.592 207.349 388.405 207.349 390.643C207.349 392.88 209.163 394.693 211.4 394.693Z" fill="#032E58"/>
<path d="M228.93 394.693C231.167 394.693 232.98 392.88 232.98 390.643C232.98 388.405 231.167 386.592 228.93 386.592C226.693 386.592 224.88 388.405 224.88 390.643C224.88 392.88 226.693 394.693 228.93 394.693Z" fill="#032E58"/>
<path d="M123.748 412.272C125.985 412.272 127.799 410.459 127.799 408.222C127.799 405.985 125.985 404.171 123.748 404.171C121.511 404.171 119.698 405.985 119.698 408.222C119.698 410.459 121.511 412.272 123.748 412.272Z" fill="#032E58"/>
<path d="M141.279 412.272C143.516 412.272 145.329 410.459 145.329 408.222C145.329 405.985 143.516 404.171 141.279 404.171C139.042 404.171 137.228 405.985 137.228 408.222C137.228 410.459 139.042 412.272 141.279 412.272Z" fill="#032E58"/>
<path d="M158.809 412.272C161.046 412.272 162.859 410.459 162.859 408.222C162.859 405.985 161.046 404.171 158.809 404.171C156.572 404.171 154.759 405.985 154.759 408.222C154.759 410.459 156.572 412.272 158.809 412.272Z" fill="#032E58"/>
<path d="M176.339 412.272C178.576 412.272 180.39 410.459 180.39 408.222C180.39 405.985 178.576 404.171 176.339 404.171C174.102 404.171 172.289 405.985 172.289 408.222C172.289 410.459 174.102 412.272 176.339 412.272Z" fill="#032E58"/>
<path d="M193.869 412.272C196.106 412.272 197.92 410.459 197.92 408.222C197.92 405.985 196.106 404.171 193.869 404.171C191.632 404.171 189.819 405.985 189.819 408.222C189.819 410.459 191.632 412.272 193.869 412.272Z" fill="#032E58"/>
<path d="M211.4 412.272C213.637 412.272 215.45 410.459 215.45 408.222C215.45 405.985 213.637 404.171 211.4 404.171C209.163 404.171 207.349 405.985 207.349 408.222C207.349 410.459 209.163 412.272 211.4 412.272Z" fill="#032E58"/>
<path d="M123.748 429.835C125.985 429.835 127.799 428.021 127.799 425.784C127.799 423.547 125.985 421.734 123.748 421.734C121.511 421.734 119.698 423.547 119.698 425.784C119.698 428.021 121.511 429.835 123.748 429.835Z" fill="#032E58"/>
<path d="M141.279 429.835C143.516 429.835 145.329 428.021 145.329 425.784C145.329 423.547 143.516 421.734 141.279 421.734C139.042 421.734 137.228 423.547 137.228 425.784C137.228 428.021 139.042 429.835 141.279 429.835Z" fill="#032E58"/>
<path d="M158.809 429.835C161.046 429.835 162.859 428.021 162.859 425.784C162.859 423.547 161.046 421.734 158.809 421.734C156.572 421.734 154.759 423.547 154.759 425.784C154.759 428.021 156.572 429.835 158.809 429.835Z" fill="#032E58"/>
<path d="M176.339 429.835C178.576 429.835 180.39 428.021 180.39 425.784C180.39 423.547 178.576 421.734 176.339 421.734C174.102 421.734 172.289 423.547 172.289 425.784C172.289 428.021 174.102 429.835 176.339 429.835Z" fill="#032E58"/>
<path d="M193.869 429.835C196.106 429.835 197.92 428.021 197.92 425.784C197.92 423.547 196.106 421.734 193.869 421.734C191.632 421.734 189.819 423.547 189.819 425.784C189.819 428.021 191.632 429.835 193.869 429.835Z" fill="#032E58"/>
<path d="M211.4 429.835C213.637 429.835 215.45 428.021 215.45 425.784C215.45 423.547 213.637 421.734 211.4 421.734C209.163 421.734 207.349 423.547 207.349 425.784C207.349 428.021 209.163 429.835 211.4 429.835Z" fill="#032E58"/>
<path d="M123.748 447.414C125.985 447.414 127.799 445.6 127.799 443.363C127.799 441.126 125.985 439.313 123.748 439.313C121.511 439.313 119.698 441.126 119.698 443.363C119.698 445.6 121.511 447.414 123.748 447.414Z" fill="#032E58"/>
<path d="M141.279 447.414C143.516 447.414 145.329 445.6 145.329 443.363C145.329 441.126 143.516 439.313 141.279 439.313C139.042 439.313 137.228 441.126 137.228 443.363C137.228 445.6 139.042 447.414 141.279 447.414Z" fill="#032E58"/>
<path d="M158.809 447.414C161.046 447.414 162.859 445.6 162.859 443.363C162.859 441.126 161.046 439.313 158.809 439.313C156.572 439.313 154.759 441.126 154.759 443.363C154.759 445.6 156.572 447.414 158.809 447.414Z" fill="#032E58"/>
<path d="M176.339 447.414C178.576 447.414 180.39 445.6 180.39 443.363C180.39 441.126 178.576 439.313 176.339 439.313C174.102 439.313 172.289 441.126 172.289 443.363C172.289 445.6 174.102 447.414 176.339 447.414Z" fill="#032E58"/>
<path d="M193.869 447.414C196.106 447.414 197.92 445.6 197.92 443.363C197.92 441.126 196.106 439.313 193.869 439.313C191.632 439.313 189.819 441.126 189.819 443.363C189.819 445.6 191.632 447.414 193.869 447.414Z" fill="#032E58"/>
<path d="M211.4 447.414C213.637 447.414 215.45 445.6 215.45 443.363C215.45 441.126 213.637 439.313 211.4 439.313C209.163 439.313 207.349 441.126 207.349 443.363C207.349 445.6 209.163 447.414 211.4 447.414Z" fill="#032E58"/>
<path d="M123.748 464.993C125.985 464.993 127.799 463.179 127.799 460.942C127.799 458.705 125.985 456.892 123.748 456.892C121.511 456.892 119.698 458.705 119.698 460.942C119.698 463.179 121.511 464.993 123.748 464.993Z" fill="#032E58"/>
<path d="M141.279 464.993C143.516 464.993 145.329 463.179 145.329 460.942C145.329 458.705 143.516 456.892 141.279 456.892C139.042 456.892 137.228 458.705 137.228 460.942C137.228 463.179 139.042 464.993 141.279 464.993Z" fill="#032E58"/>
<path d="M158.809 464.993C161.046 464.993 162.859 463.179 162.859 460.942C162.859 458.705 161.046 456.892 158.809 456.892C156.572 456.892 154.759 458.705 154.759 460.942C154.759 463.179 156.572 464.993 158.809 464.993Z" fill="#032E58"/>
<path d="M176.339 464.993C178.576 464.993 180.39 463.179 180.39 460.942C180.39 458.705 178.576 456.892 176.339 456.892C174.102 456.892 172.289 458.705 172.289 460.942C172.289 463.179 174.102 464.993 176.339 464.993Z" fill="#032E58"/>
<path d="M193.869 464.993C196.106 464.993 197.92 463.179 197.92 460.942C197.92 458.705 196.106 456.892 193.869 456.892C191.632 456.892 189.819 458.705 189.819 460.942C189.819 463.179 191.632 464.993 193.869 464.993Z" fill="#032E58"/>
<path d="M211.4 464.993C213.637 464.993 215.45 463.179 215.45 460.942C215.45 458.705 213.637 456.892 211.4 456.892C209.163 456.892 207.349 458.705 207.349 460.942C207.349 463.179 209.163 464.993 211.4 464.993Z" fill="#032E58"/>
<path d="M246.46 464.993C248.697 464.993 250.511 463.179 250.511 460.942C250.511 458.705 248.697 456.892 246.46 456.892C244.223 456.892 242.41 458.705 242.41 460.942C242.41 463.179 244.223 464.993 246.46 464.993Z" fill="#032E58"/>
<path d="M123.748 482.556C125.985 482.556 127.799 480.742 127.799 478.505C127.799 476.268 125.985 474.455 123.748 474.455C121.511 474.455 119.698 476.268 119.698 478.505C119.698 480.742 121.511 482.556 123.748 482.556Z" fill="#032E58"/>
<path d="M141.279 482.556C143.516 482.556 145.329 480.742 145.329 478.505C145.329 476.268 143.516 474.455 141.279 474.455C139.042 474.455 137.228 476.268 137.228 478.505C137.228 480.742 139.042 482.556 141.279 482.556Z" fill="#032E58"/>
<path d="M158.809 482.556C161.046 482.556 162.859 480.742 162.859 478.505C162.859 476.268 161.046 474.455 158.809 474.455C156.572 474.455 154.759 476.268 154.759 478.505C154.759 480.742 156.572 482.556 158.809 482.556Z" fill="#032E58"/>
<path d="M176.339 482.556C178.576 482.556 180.39 480.742 180.39 478.505C180.39 476.268 178.576 474.455 176.339 474.455C174.102 474.455 172.289 476.268 172.289 478.505C172.289 480.742 174.102 482.556 176.339 482.556Z" fill="#032E58"/>
<path d="M193.869 482.556C196.106 482.556 197.92 480.742 197.92 478.505C197.92 476.268 196.106 474.455 193.869 474.455C191.632 474.455 189.819 476.268 189.819 478.505C189.819 480.742 191.632 482.556 193.869 482.556Z" fill="#032E58"/>
<path d="M211.4 482.556C213.637 482.556 215.45 480.742 215.45 478.505C215.45 476.268 213.637 474.455 211.4 474.455C209.163 474.455 207.349 476.268 207.349 478.505C207.349 480.742 209.163 482.556 211.4 482.556Z" fill="#032E58"/>
<path d="M228.93 482.556C231.167 482.556 232.98 480.742 232.98 478.505C232.98 476.268 231.167 474.455 228.93 474.455C226.693 474.455 224.88 476.268 224.88 478.505C224.88 480.742 226.693 482.556 228.93 482.556Z" fill="#032E58"/>
<path d="M246.46 482.556C248.697 482.556 250.511 480.742 250.511 478.505C250.511 476.268 248.697 474.455 246.46 474.455C244.223 474.455 242.41 476.268 242.41 478.505C242.41 480.742 244.223 482.556 246.46 482.556Z" fill="#032E58"/>
<path d="M141.279 500.135C143.516 500.135 145.329 498.321 145.329 496.084C145.329 493.847 143.516 492.034 141.279 492.034C139.042 492.034 137.228 493.847 137.228 496.084C137.228 498.321 139.042 500.135 141.279 500.135Z" fill="#032E58"/>
<path d="M158.809 500.135C161.046 500.135 162.859 498.321 162.859 496.084C162.859 493.847 161.046 492.034 158.809 492.034C156.572 492.034 154.759 493.847 154.759 496.084C154.759 498.321 156.572 500.135 158.809 500.135Z" fill="#032E58"/>
<path d="M176.339 500.135C178.576 500.135 180.39 498.321 180.39 496.084C180.39 493.847 178.576 492.034 176.339 492.034C174.102 492.034 172.289 493.847 172.289 496.084C172.289 498.321 174.102 500.135 176.339 500.135Z" fill="#032E58"/>
<path d="M193.869 500.135C196.106 500.135 197.92 498.321 197.92 496.084C197.92 493.847 196.106 492.034 193.869 492.034C191.632 492.034 189.819 493.847 189.819 496.084C189.819 498.321 191.632 500.135 193.869 500.135Z" fill="#032E58"/>
<path d="M228.93 500.135C231.167 500.135 232.98 498.321 232.98 496.084C232.98 493.847 231.167 492.034 228.93 492.034C226.693 492.034 224.88 493.847 224.88 496.084C224.88 498.321 226.693 500.135 228.93 500.135Z" fill="#032E58"/>
<path d="M246.46 500.135C248.697 500.135 250.511 498.321 250.511 496.084C250.511 493.847 248.697 492.034 246.46 492.034C244.223 492.034 242.41 493.847 242.41 496.084C242.41 498.321 244.223 500.135 246.46 500.135Z" fill="#032E58"/>
<path d="M141.279 517.697C143.516 517.697 145.329 515.884 145.329 513.647C145.329 511.41 143.516 509.596 141.279 509.596C139.042 509.596 137.228 511.41 137.228 513.647C137.228 515.884 139.042 517.697 141.279 517.697Z" fill="#032E58"/>
<path d="M158.809 517.697C161.046 517.697 162.859 515.884 162.859 513.647C162.859 511.41 161.046 509.596 158.809 509.596C156.572 509.596 154.759 511.41 154.759 513.647C154.759 515.884 156.572 517.697 158.809 517.697Z" fill="#032E58"/>
<path d="M176.339 517.697C178.576 517.697 180.39 515.884 180.39 513.647C180.39 511.41 178.576 509.596 176.339 509.596C174.102 509.596 172.289 511.41 172.289 513.647C172.289 515.884 174.102 517.697 176.339 517.697Z" fill="#032E58"/>
<path d="M193.869 517.697C196.106 517.697 197.92 515.884 197.92 513.647C197.92 511.41 196.106 509.596 193.869 509.596C191.632 509.596 189.819 511.41 189.819 513.647C189.819 515.884 191.632 517.697 193.869 517.697Z" fill="#032E58"/>
<path d="M228.93 517.697C231.167 517.697 232.98 515.884 232.98 513.647C232.98 511.41 231.167 509.596 228.93 509.596C226.693 509.596 224.88 511.41 224.88 513.647C224.88 515.884 226.693 517.697 228.93 517.697Z" fill="#032E58"/>
<path d="M141.279 535.276C143.516 535.276 145.329 533.463 145.329 531.226C145.329 528.989 143.516 527.175 141.279 527.175C139.042 527.175 137.228 528.989 137.228 531.226C137.228 533.463 139.042 535.276 141.279 535.276Z" fill="#032E58"/>
<path d="M158.809 535.276C161.046 535.276 162.859 533.463 162.859 531.226C162.859 528.989 161.046 527.175 158.809 527.175C156.572 527.175 154.759 528.989 154.759 531.226C154.759 533.463 156.572 535.276 158.809 535.276Z" fill="#032E58"/>
<path d="M176.339 535.276C178.576 535.276 180.39 533.463 180.39 531.226C180.39 528.989 178.576 527.175 176.339 527.175C174.102 527.175 172.289 528.989 172.289 531.226C172.289 533.463 174.102 535.276 176.339 535.276Z" fill="#032E58"/>
<path d="M141.279 552.855C143.516 552.855 145.329 551.042 145.329 548.805C145.329 546.568 143.516 544.754 141.279 544.754C139.042 544.754 137.228 546.568 137.228 548.805C137.228 551.042 139.042 552.855 141.279 552.855Z" fill="#032E58"/>
<path d="M158.809 552.855C161.046 552.855 162.859 551.042 162.859 548.805C162.859 546.568 161.046 544.754 158.809 544.754C156.572 544.754 154.759 546.568 154.759 548.805C154.759 551.042 156.572 552.855 158.809 552.855Z" fill="#032E58"/>
</g>
<defs>
<clipPath id="clip0_226_590">
<rect width="268" height="553" fill="white"/>
</clipPath>
</defs>
</svg>
