<svg width="46" height="46" viewBox="0 0 46 46" fill="none" xmlns="http://www.w3.org/2000/svg">
<g clip-path="url(#clip0_0_782)">
<path d="M23 40C22.4477 40 22 40.4477 22 41C22 41.5523 22.4477 42 23 42L23 40ZM23 42L46 42L46 40L23 40L23 42Z" fill="#F0F0F0"/>
<path d="M39.0517 4.88096C39.0247 4.75179 38.9725 4.62921 38.8981 4.52022C38.8237 4.41123 38.7285 4.31796 38.618 4.24575C38.5076 4.17354 38.384 4.12381 38.2543 4.09938C38.1246 4.07495 37.9914 4.07632 37.8622 4.10339C35.408 4.62161 32.8734 4.62969 30.4159 4.12713C27.9583 3.62456 25.6304 2.62209 23.5766 1.18198C23.4077 1.06354 23.2063 1 23 1C22.7936 1 22.5923 1.06354 22.4233 1.18198C20.3696 2.6222 18.0417 3.62474 15.5841 4.12731C13.1266 4.62987 10.592 4.62173 8.13774 4.10339C7.99125 4.0718 7.83954 4.0735 7.69381 4.10839C7.54807 4.14328 7.41203 4.21045 7.29573 4.30495C7.17944 4.39946 7.08585 4.51888 7.02189 4.65439C6.95792 4.78991 6.92521 4.93806 6.92618 5.08791V21.1979C6.92792 24.1059 7.62094 26.9719 8.94809 29.5595C10.2752 32.1471 12.1985 34.3821 14.5592 36.0802L22.4153 41.7141C22.5855 41.837 22.7901 41.9032 23 41.9032C23.2099 41.9032 23.4145 41.837 23.5847 41.7141L31.4407 36.0802C33.8015 34.3821 35.7247 32.1471 37.0519 29.5595C38.379 26.9719 39.072 24.1059 39.0738 21.1979V5.08591C39.0742 5.01708 39.0654 4.94841 39.0517 4.88096ZM37.0646 21.1979C37.0637 23.7867 36.4476 26.3383 35.2668 28.6422C34.086 30.9461 32.3745 32.9363 30.2734 34.4487L23 39.6607L15.7266 34.4507C13.6253 32.938 11.9137 30.9474 10.7329 28.6432C9.55217 26.339 8.93606 23.787 8.9354 21.1979V6.28943C13.8419 7.02144 18.8464 5.9276 23 3.21532C27.154 5.92672 32.1581 7.02049 37.0646 6.28943V21.1979Z" fill="#F0F0F0"/>
<path d="M19.9811 21.8216L18.6175 21.4715L19.29 14.7917H26.1725V16.3673H20.7366L20.3312 20.0158C20.5769 19.8745 20.8871 19.7425 21.2617 19.6196C21.6426 19.4968 22.0787 19.4354 22.57 19.4354C23.1904 19.4354 23.7463 19.5428 24.2377 19.7578C24.7291 19.9667 25.1468 20.2676 25.4907 20.6607C25.8408 21.0539 26.108 21.5268 26.2923 22.0796C26.4766 22.6324 26.5687 23.2497 26.5687 23.9315C26.5687 24.5765 26.4796 25.1692 26.3015 25.7097C26.1295 26.2503 25.8685 26.7232 25.5184 27.1286C25.1683 27.5279 24.726 27.8381 24.1916 28.0592C23.6634 28.2803 23.0399 28.3909 22.3213 28.3909C21.7808 28.3909 21.2679 28.3172 20.7826 28.1697C20.3035 28.0162 19.8736 27.7859 19.4927 27.4787C19.1181 27.1655 18.8109 26.7785 18.5714 26.3178C18.338 25.851 18.1906 25.3044 18.1291 24.6778H19.7507C19.8244 25.1815 19.9718 25.6053 20.193 25.9493C20.4141 26.2933 20.7028 26.5543 21.059 26.7324C21.4214 26.9044 21.8422 26.9904 22.3213 26.9904C22.7267 26.9904 23.086 26.9198 23.3993 26.7785C23.7125 26.6372 23.9766 26.4345 24.1916 26.1704C24.4066 25.9063 24.5694 25.5869 24.6799 25.2122C24.7966 24.8375 24.855 24.4168 24.855 23.95C24.855 23.5261 24.7966 23.133 24.6799 22.7706C24.5632 22.4082 24.3882 22.0919 24.1548 21.8216C23.9275 21.5514 23.648 21.3425 23.3163 21.1951C22.9847 21.0416 22.6038 20.9648 22.1739 20.9648C21.6026 20.9648 21.1696 21.0416 20.8748 21.1951C20.5861 21.3487 20.2882 21.5575 19.9811 21.8216Z" fill="#F0F0F0"/>
</g>
<defs>
<clipPath id="clip0_0_782">
<rect width="46" height="46" fill="white"/>
</clipPath>
</defs>
</svg>
