<svg width="46" height="46" viewBox="0 0 46 46" fill="none" xmlns="http://www.w3.org/2000/svg">
<g clip-path="url(#clip0_0_758)">
<line x1="44" y1="41" x2="46" y2="41" stroke="#F0F0F0" stroke-width="2"/>
<path d="M39.6111 10.2222H29.3889V12.7777H39.6111V39.6111H29.3889V42.1666H42.1667V12.7777C42.1667 12.0999 41.8974 11.4499 41.4182 10.9707C40.9389 10.4914 40.2889 10.2222 39.6111 10.2222Z" fill="#F0F0F0"/>
<path d="M25.4022 3.83337H7.82C7.10156 3.83337 6.41254 4.11877 5.90453 4.62679C5.39651 5.1348 5.11111 5.82382 5.11111 6.54226V42.1667H28.1111V6.54226C28.1111 5.82382 27.8257 5.1348 27.3177 4.62679C26.8097 4.11877 26.1207 3.83337 25.4022 3.83337ZM25.5556 39.6112H21.7222V35.7778H11.5V39.6112H7.66667V6.54226C7.66667 6.52213 7.67064 6.50219 7.67834 6.48358C7.68605 6.46498 7.69734 6.44808 7.71158 6.43384C7.72582 6.4196 7.74272 6.40831 7.76133 6.4006C7.77993 6.3929 7.79987 6.38893 7.82 6.38893H25.4022C25.4224 6.38893 25.4423 6.3929 25.4609 6.4006C25.4795 6.40831 25.4964 6.4196 25.5106 6.43384C25.5249 6.44808 25.5362 6.46498 25.5439 6.48358C25.5516 6.50219 25.5556 6.52213 25.5556 6.54226V39.6112Z" fill="#F0F0F0"/>
<path d="M10.2222 10.2222H12.7778V12.7777H10.2222V10.2222Z" fill="#F0F0F0"/>
<path d="M15.3333 10.2222H17.8889V12.7777H15.3333V10.2222Z" fill="#F0F0F0"/>
<path d="M20.4445 10.2222H23V12.7777H20.4445V10.2222Z" fill="#F0F0F0"/>
<path d="M10.2222 16.6111H12.7778V19.1666H10.2222V16.6111Z" fill="#F0F0F0"/>
<path d="M15.3333 16.6111H17.8889V19.1666H15.3333V16.6111Z" fill="#F0F0F0"/>
<path d="M20.4445 16.6111H23V19.1666H20.4445V16.6111Z" fill="#F0F0F0"/>
<path d="M10.2222 23H12.7778V25.5556H10.2222V23Z" fill="#F0F0F0"/>
<path d="M15.3333 23H17.8889V25.5556H15.3333V23Z" fill="#F0F0F0"/>
<path d="M20.4445 23H23V25.5556H20.4445V23Z" fill="#F0F0F0"/>
<path d="M10.2222 29.3889H12.7778V31.9445H10.2222V29.3889Z" fill="#F0F0F0"/>
<path d="M15.3333 29.3889H17.8889V31.9445H15.3333V29.3889Z" fill="#F0F0F0"/>
<path d="M20.4445 29.3889H23V31.9445H20.4445V29.3889Z" fill="#F0F0F0"/>
<path d="M29.3889 16.6111H31.9444V19.1666H29.3889V16.6111Z" fill="#F0F0F0"/>
<path d="M34.5 16.6111H37.0556V19.1666H34.5V16.6111Z" fill="#F0F0F0"/>
<path d="M29.3889 23H31.9444V25.5556H29.3889V23Z" fill="#F0F0F0"/>
<path d="M34.5 23H37.0556V25.5556H34.5V23Z" fill="#F0F0F0"/>
<path d="M29.3889 29.3889H31.9444V31.9445H29.3889V29.3889Z" fill="#F0F0F0"/>
<path d="M34.5 29.3889H37.0556V31.9445H34.5V29.3889Z" fill="#F0F0F0"/>
</g>
<defs>
<clipPath id="clip0_0_758">
<rect width="46" height="46" fill="white"/>
</clipPath>
</defs>
</svg>
