<svg width="250" height="250" viewBox="0 0 250 250" fill="none" xmlns="http://www.w3.org/2000/svg">
<path d="M246.77 70.2006C246.094 69.0524 245.197 68.1152 244.154 67.468C243.112 66.8208 241.954 66.4825 240.779 66.4816H71.9204L60.0739 39.9033C55.4282 20.6758 44.3888 18.6001 39.8611 18.6001H8.27393C4.22529 18.6001 0.951172 22.5179 0.951172 27.3523C0.951172 32.1867 4.22898 36.1042 8.2737 36.1042H39.8572C40.8564 36.1042 43.9056 36.1042 45.9853 44.6934L86.7386 179.207C87.6235 182.984 90.5031 185.592 93.788 185.592H205.689C208.779 185.592 211.537 183.279 212.58 179.801L247.667 78.1948C248.474 75.5109 248.138 72.523 246.77 70.2006ZM200.536 168.093H99.3461L76.0364 83.9905H230.368L200.536 168.093Z" fill="#E7EBEE"/>
<line x1="78.3027" y1="123.868" x2="226.923" y2="123.868" stroke="#E7EBEE" stroke-width="16.2652"/>
<circle cx="116.952" cy="226.864" r="17.5676" fill="#E7EBEE"/>
<circle cx="201.267" cy="226.864" r="17.5676" fill="#E7EBEE"/>
</svg>
