<svg width="17" height="17" viewBox="0 0 17 17" fill="none" xmlns="http://www.w3.org/2000/svg">
<path fill-rule="evenodd" clip-rule="evenodd" d="M1.5 4.5V12.5C1.5 13.0304 1.71071 13.5391 2.08579 13.9142C2.46086 14.2893 2.96957 14.5 3.5 14.5H13.5C14.0304 14.5 14.5391 14.2893 14.9142 13.9142C15.2893 13.5391 15.5 13.0304 15.5 12.5V4.5C15.5 3.96957 15.2893 3.46086 14.9142 3.08579C14.5391 2.71071 14.0304 2.5 13.5 2.5H3.5C2.96957 2.5 2.46086 2.71071 2.08579 3.08579C1.71071 3.46086 1.5 3.96957 1.5 4.5Z" stroke="#073F88" stroke-linecap="round" stroke-linejoin="round"/>
<path d="M3.5 5.5L8.5 8.5L13.5 5.5" stroke="#073F88" stroke-linecap="round" stroke-linejoin="round"/>
</svg>
