<svg width="27" height="21" viewBox="0 0 27 21" fill="none" xmlns="http://www.w3.org/2000/svg">
<g clip-path="url(#clip0_359_31)">
<path d="M25.6563 20.6496V20.7016H25.7047C25.7154 20.7016 25.7246 20.6991 25.7312 20.695C25.7373 20.691 25.7409 20.6839 25.7409 20.6753C25.7409 20.6667 25.7373 20.6602 25.7312 20.6561C25.7246 20.6516 25.7154 20.6496 25.7047 20.6496H25.6563ZM25.7052 20.6132C25.7302 20.6132 25.7496 20.6187 25.7633 20.6299C25.7771 20.6409 25.7837 20.6561 25.7837 20.6753C25.7837 20.6915 25.7786 20.7046 25.7674 20.7153C25.7567 20.7253 25.7414 20.7319 25.721 20.7344L25.7853 20.8077H25.7353L25.6756 20.7349H25.6563V20.8077H25.6145V20.6132H25.7052ZM25.6924 20.8749C25.7154 20.8749 25.7368 20.8703 25.7562 20.8618C25.7761 20.8532 25.7934 20.8416 25.8081 20.8269C25.823 20.8122 25.8347 20.7951 25.8433 20.7749C25.8515 20.7552 25.8561 20.7339 25.8561 20.7112C25.8561 20.6885 25.8515 20.6672 25.8433 20.6476C25.8347 20.6279 25.823 20.6102 25.8081 20.5955C25.7934 20.5809 25.7761 20.5693 25.7562 20.5606C25.7368 20.5526 25.7154 20.5485 25.6924 20.5485C25.6695 20.5485 25.6476 20.5526 25.6278 20.5606C25.6073 20.5693 25.5895 20.5809 25.5747 20.5955C25.5599 20.6102 25.5482 20.6279 25.5401 20.6476C25.5314 20.6672 25.5273 20.6885 25.5273 20.7112C25.5273 20.7339 25.5314 20.7552 25.5401 20.7749C25.5482 20.7951 25.5599 20.8122 25.5747 20.8269C25.5895 20.8416 25.6073 20.8532 25.6278 20.8618C25.6476 20.8703 25.6695 20.8749 25.6924 20.8749ZM25.6924 20.5016C25.7225 20.5016 25.7501 20.5071 25.7765 20.5182C25.8026 20.5288 25.825 20.5439 25.8448 20.5632C25.8643 20.5819 25.8796 20.6041 25.8907 20.6299C25.902 20.6551 25.9076 20.6824 25.9076 20.7112C25.9076 20.74 25.902 20.7673 25.8907 20.7926C25.8796 20.8178 25.8643 20.84 25.8448 20.8593C25.825 20.8779 25.8026 20.8931 25.7765 20.9042C25.7501 20.9153 25.7225 20.9209 25.6924 20.9209C25.6619 20.9209 25.6338 20.9153 25.6073 20.9042C25.5808 20.8931 25.5579 20.8779 25.5385 20.8593C25.5191 20.84 25.5038 20.8178 25.4927 20.7926C25.4814 20.7673 25.4758 20.74 25.4758 20.7112C25.4758 20.6824 25.4814 20.6551 25.4927 20.6299C25.5038 20.6041 25.5191 20.5819 25.5385 20.5632C25.5579 20.5439 25.5808 20.5288 25.6073 20.5182C25.6338 20.5071 25.6619 20.5016 25.6924 20.5016ZM5.83229 19.7523C5.83229 19.3814 6.07747 19.0768 6.47814 19.0768C6.86096 19.0768 7.11939 19.3683 7.11939 19.7523C7.11939 20.1363 6.86096 20.4278 6.47814 20.4278C6.07747 20.4278 5.83229 20.1231 5.83229 19.7523ZM7.55574 19.7523V18.6973H7.09289V18.9535C6.94608 18.7636 6.72332 18.6443 6.42053 18.6443C5.82362 18.6443 5.35568 19.1081 5.35568 19.7523C5.35568 20.3969 5.82362 20.8602 6.42053 20.8602C6.72332 20.8602 6.94608 20.741 7.09289 20.551V20.8072H7.55574V19.7523ZM23.1967 19.7523C23.1967 19.3814 23.4419 19.0768 23.8426 19.0768C24.2259 19.0768 24.4838 19.3683 24.4838 19.7523C24.4838 20.1363 24.2259 20.4278 23.8426 20.4278C23.4419 20.4278 23.1967 20.1231 23.1967 19.7523ZM24.9207 19.7523V17.8501H24.4574V18.9535C24.3105 18.7636 24.0878 18.6443 23.785 18.6443C23.1881 18.6443 22.7201 19.1081 22.7201 19.7523C22.7201 20.3969 23.1881 20.8602 23.785 20.8602C24.0878 20.8602 24.3105 20.741 24.4574 20.551V20.8072H24.9207V19.7523ZM13.3011 19.055C13.5993 19.055 13.791 19.2405 13.8398 19.5669H12.7352C12.7847 19.2622 12.9712 19.055 13.3011 19.055ZM13.3103 18.6443C12.6863 18.6443 12.25 19.0945 12.25 19.7523C12.25 20.4233 12.7042 20.8602 13.3413 20.8602C13.662 20.8602 13.9556 20.7809 14.214 20.5647L13.9872 20.2246C13.8088 20.3656 13.5814 20.4455 13.3678 20.4455C13.0696 20.4455 12.7979 20.3086 12.7312 19.9286H14.3119C14.3165 19.8715 14.3211 19.8139 14.3211 19.7523C14.3165 19.0945 13.9067 18.6443 13.3103 18.6443ZM18.8991 19.7523C18.8991 19.3814 19.1443 19.0768 19.5449 19.0768C19.9278 19.0768 20.1862 19.3683 20.1862 19.7523C20.1862 20.1363 19.9278 20.4278 19.5449 20.4278C19.1443 20.4278 18.8991 20.1231 18.8991 19.7523ZM20.6225 19.7523V18.6973H20.1597V18.9535C20.0123 18.7636 19.7902 18.6443 19.4873 18.6443C18.8904 18.6443 18.4225 19.1081 18.4225 19.7523C18.4225 20.3969 18.8904 20.8602 19.4873 20.8602C19.7902 20.8602 20.0123 20.741 20.1597 20.551V20.8072H20.6225V19.7523ZM16.2851 19.7523C16.2851 20.3924 16.7347 20.8602 17.4208 20.8602C17.7415 20.8602 17.9551 20.7895 18.1865 20.6086L17.9642 20.2378C17.7904 20.3616 17.6079 20.4278 17.407 20.4278C17.0375 20.4232 16.7658 20.1585 16.7658 19.7523C16.7658 19.3461 17.0375 19.0813 17.407 19.0768C17.6079 19.0768 17.7904 19.1429 17.9642 19.2667L18.1865 18.8959C17.9551 18.715 17.7415 18.6443 17.4208 18.6443C16.7347 18.6443 16.2851 19.1122 16.2851 19.7523ZM22.2527 18.6443C21.9856 18.6443 21.8117 18.7681 21.6915 18.9535V18.6973H21.2327V20.8072H21.6961V19.6245C21.6961 19.2753 21.8474 19.0813 22.1502 19.0813C22.244 19.0813 22.3419 19.0945 22.4398 19.1344L22.5825 18.7019C22.48 18.662 22.3465 18.6443 22.2527 18.6443ZM9.84502 18.8651C9.62221 18.7196 9.31538 18.6443 8.97688 18.6443C8.43757 18.6443 8.09046 18.9005 8.09046 19.3198C8.09046 19.6639 8.34892 19.876 8.82504 19.9423L9.04368 19.973C9.29754 20.0084 9.41732 20.0746 9.41732 20.1939C9.41732 20.357 9.24811 20.45 8.93208 20.45C8.61142 20.45 8.37996 20.3484 8.22403 20.2292L8.00584 20.5864C8.25972 20.7718 8.5803 20.8602 8.92744 20.8602C9.5422 20.8602 9.89855 20.5732 9.89855 20.1716C9.89855 19.8008 9.6182 19.6068 9.15482 19.5406L8.93664 19.5093C8.73631 19.483 8.57574 19.4436 8.57574 19.3021C8.57574 19.1475 8.72711 19.055 8.98097 19.055C9.25266 19.055 9.51572 19.1566 9.64469 19.2359L9.84502 18.8651ZM15.8172 18.6443C15.55 18.6443 15.3763 18.7681 15.2564 18.9535V18.6973H14.7977V20.8072H15.2605V19.6245C15.2605 19.2753 15.412 19.0813 15.7147 19.0813C15.8085 19.0813 15.9064 19.0945 16.0042 19.1344L16.147 18.7019C16.0446 18.662 15.9109 18.6443 15.8172 18.6443ZM11.8672 18.6973H11.1102V18.0573H10.6423V18.6973H10.2105V19.1167H10.6423V20.0792C10.6423 20.5687 10.8339 20.8602 11.3814 20.8602C11.5822 20.8602 11.8136 20.7986 11.9604 20.697L11.8269 20.3039C11.6887 20.3833 11.5374 20.4233 11.417 20.4233C11.1857 20.4233 11.1102 20.2818 11.1102 20.0701V19.1167H11.8672V18.6973ZM4.94636 20.8072V19.483C4.94636 18.9843 4.62573 18.6489 4.10884 18.6443C3.83714 18.6398 3.55679 18.7236 3.36054 19.0197C3.21373 18.7858 2.98231 18.6443 2.65709 18.6443C2.42974 18.6443 2.20749 18.7105 2.03367 18.9576V18.6973H1.57031V20.8072H2.03775V19.6376C2.03775 19.2713 2.24266 19.0768 2.55921 19.0768C2.86659 19.0768 3.02207 19.2753 3.02207 19.633V20.8072H3.49001V19.6376C3.49001 19.2713 3.70359 19.0768 4.01097 19.0768C4.32701 19.0768 4.4784 19.2753 4.4784 19.633V20.8072H4.94636Z" fill="#9A9C9E"/>
<path d="M25.943 13.7901V13.4819H25.862L25.7682 13.6936L25.6749 13.4819H25.5933V13.7901H25.651V13.5577L25.7386 13.7582H25.7982L25.886 13.5572V13.7901H25.943ZM25.4287 13.7901V13.5345H25.5327V13.4824H25.2676V13.5345H25.3716V13.7901H25.4287Z" fill="#F79410"/>
<path d="M16.722 15.1159H9.70703V2.62061H16.722V15.1159Z" fill="#FF5F00"/>
<path d="M10.1575 8.86713C10.1575 6.33243 11.3549 4.07456 13.2195 2.61949C11.856 1.55548 10.135 0.92041 8.26481 0.92041C3.83716 0.92041 0.248047 4.47823 0.248047 8.86713C0.248047 13.2561 3.83716 16.8139 8.26481 16.8139C10.135 16.8139 11.856 16.1788 13.2195 15.1148C11.3549 13.6597 10.1575 11.4019 10.1575 8.86713Z" fill="#EB001B"/>
<path d="M26.1887 8.86713C26.1887 13.2561 22.5997 16.8139 18.172 16.8139C16.3017 16.8139 14.5809 16.1788 13.2168 15.1148C15.0819 13.6597 16.2793 11.4019 16.2793 8.86713C16.2793 6.33242 15.0819 4.07456 13.2168 2.61949C14.5809 1.55548 16.3017 0.92041 18.172 0.92041C22.5997 0.92041 26.1887 4.47823 26.1887 8.86713Z" fill="#F79E1B"/>
</g>
<defs>
<clipPath id="clip0_359_31">
<rect width="25.9358" height="20" fill="white" transform="translate(0.25 0.92041)"/>
</clipPath>
</defs>
</svg>
