<svg width="29" height="20" viewBox="0 0 29 20" fill="none" xmlns="http://www.w3.org/2000/svg">
<path fill-rule="evenodd" clip-rule="evenodd" d="M18.5393 19.44C23.9678 19.44 28.3676 15.0887 28.3676 9.72C28.3676 4.35132 23.9678 0 18.5393 0C13.1107 0 8.71094 4.35132 8.71094 9.72C8.71094 15.0887 13.1107 19.44 18.5393 19.44ZM18.5393 13.5C20.6502 13.5 22.3614 11.8076 22.3614 9.72C22.3614 7.63236 20.6502 5.94 18.5393 5.94C16.4284 5.94 14.7171 7.63236 14.7171 9.72C14.7171 11.8076 16.4284 13.5 18.5393 13.5Z" fill="#8A42F9"/>
<path d="M8.7087 3.24023H1.06445L5.14099 16.2002H8.7087V3.24023Z" fill="#8A42F9"/>
</svg>
