<svg width="21" height="21" viewBox="0 0 21 21" fill="none" xmlns="http://www.w3.org/2000/svg">
<g clip-path="url(#clip0_359_12)">
<path d="M2.04298 4.21338H17.668C18.5274 4.21338 19.2305 4.9165 19.2305 5.77589V7.65091C19.2305 8.5103 18.5274 9.21343 17.668 9.21343H2.04298C1.18359 9.21335 0.480469 8.51023 0.480469 7.65087V5.77585C0.480469 4.9165 1.18359 4.21338 2.04298 4.21338Z" fill="#A86A3F"/>
<path d="M5.46485 5.88473L15.2461 3.291C15.5742 3.19725 15.918 3.40037 16.0117 3.72851L17.6367 9.72851C17.7305 10.0566 17.5273 10.4004 17.1992 10.4941L4.46485 13.8847C4.13672 13.9785 3.79299 13.7753 3.69925 13.4472L2.51172 9.04098L5.46485 5.88473Z" fill="#5EBA6D"/>
<path d="M15.9358 9.54106L13.8265 10.1035C13.6546 10.1504 13.4827 10.0567 13.4515 9.88479C13.4046 9.71292 13.4984 9.54102 13.6702 9.5098L15.4827 9.02543L14.514 5.40044L12.7015 5.88481C12.5297 5.9317 12.3577 5.83792 12.3265 5.66605C12.2796 5.49419 12.3734 5.32229 12.5453 5.29107L14.6546 4.72858C14.8265 4.68169 14.9984 4.77548 15.0296 4.94734L16.1546 9.16607C16.2015 9.33794 16.1077 9.5098 15.9358 9.54106ZM7.18584 11.9004L5.07647 12.4629C4.90461 12.5098 4.73271 12.416 4.70149 12.2442L3.57648 8.02544C3.52959 7.85358 3.62338 7.68167 3.79524 7.65045L5.9046 7.08797C6.07647 7.04108 6.24837 7.13486 6.27959 7.30672C6.32649 7.47859 6.2327 7.65049 6.06084 7.68171L4.24834 8.16608L5.21707 11.7911L7.02957 11.3067C7.20143 11.2598 7.37333 11.3536 7.40456 11.5255C7.45145 11.6817 7.3577 11.8536 7.18584 11.9004Z" fill="#B3F0BD"/>
<path d="M0.603561 8.0725C3.38479 6.47873 10.8848 2.08809 10.8848 2.08809C11.1817 1.91623 11.5723 2.00998 11.7442 2.30685L14.8692 7.68185C15.0411 7.97872 14.9317 8.35371 14.6348 8.52561L3.19729 15.0881C2.90042 15.26 2.5098 15.1662 2.3379 14.8693C2.3379 14.8693 1.46292 13.0881 0.587891 11.5881C0.58793 8.07251 0.603561 9.22873 0.603561 8.0725Z" fill="#5EBA6D"/>
<path d="M13.2805 7.50953L11.093 3.72827C10.9993 3.57204 10.8118 3.52515 10.6711 3.6189L8.78053 4.71264C8.6243 4.80638 8.57741 4.99388 8.67116 5.13452C8.7649 5.29075 8.9524 5.33764 9.09304 5.24389L10.718 4.30639L12.5931 7.55638L10.9681 8.49389C10.8118 8.58764 10.7649 8.77513 10.8587 8.91577C10.9524 9.072 11.1399 9.1189 11.2806 9.02515L13.1712 7.93141C13.3118 7.85329 13.3743 7.6658 13.2805 7.50953ZM4.99928 11.9314L3.37428 12.8689L1.49926 9.61889L3.12426 8.68139C3.28049 8.58764 3.32738 8.40015 3.23364 8.25951C3.13989 8.10327 2.95239 8.05638 2.81175 8.15013L0.921145 9.24387C0.764914 9.33761 0.71802 9.52511 0.811767 9.66575L2.99925 13.447C3.093 13.6032 3.28049 13.6501 3.42113 13.5564L5.31174 12.4626C5.46797 12.3689 5.51486 12.1814 5.42112 12.0408C5.343 11.9002 5.15551 11.8376 4.99928 11.9314ZM5.79614 6.41579C4.59303 7.10328 4.18678 8.63453 4.87427 9.83765C5.57739 11.0408 7.09301 11.447 8.29613 10.7595C9.49925 10.072 9.9055 8.54079 9.21801 7.33767C8.51488 6.15014 6.99926 5.7283 5.79614 6.41579ZM13.2805 7.50953L11.093 3.72827C10.9993 3.57204 10.8118 3.52515 10.6711 3.6189L8.78053 4.71264C8.6243 4.80638 8.57741 4.99388 8.67116 5.13452C8.7649 5.29075 8.9524 5.33764 9.09304 5.24389L10.718 4.30639L12.5931 7.55638L10.9681 8.49389C10.8118 8.58764 10.7649 8.77513 10.8587 8.91577C10.9524 9.072 11.1399 9.1189 11.2806 9.02515L13.1712 7.93141C13.3118 7.85329 13.3743 7.6658 13.2805 7.50953ZM4.99928 11.9314L3.37428 12.8689L1.49926 9.61889L3.12426 8.68139C3.28049 8.58764 3.32738 8.40015 3.23364 8.25951C3.13989 8.10327 2.95239 8.05638 2.81175 8.15013L0.921145 9.24387C0.764914 9.33761 0.71802 9.52511 0.811767 9.66575L2.99925 13.447C3.093 13.6032 3.28049 13.6501 3.42113 13.5564L5.31174 12.4626C5.46797 12.3689 5.51486 12.1814 5.42112 12.0408C5.343 11.9002 5.15551 11.8376 4.99928 11.9314ZM5.79614 6.41579C4.59303 7.10328 4.18678 8.63453 4.87427 9.83765C5.57739 11.0408 7.09301 11.447 8.29613 10.7595C9.49925 10.072 9.9055 8.54079 9.21801 7.33767C8.51488 6.15014 6.99926 5.7283 5.79614 6.41579Z" fill="#B3F0BD"/>
<path d="M18.293 19.8384H2.04298C1.18359 19.8384 0.480469 19.1353 0.480469 18.2759V7.02589H18.293C19.1524 7.02589 19.8555 7.72901 19.8555 8.58841V18.2759C19.8555 19.1353 19.1523 19.8384 18.293 19.8384ZM1.73048 7.02589H0.480469V5.77588C0.480469 6.46337 1.04295 7.02589 1.73048 7.02589Z" fill="#C47E4D"/>
<path d="M19.8535 15.9321H17.3535C16.1504 15.9321 15.166 14.9477 15.166 13.7446C15.166 12.5415 16.1504 11.5571 17.3535 11.5571H19.8535C20.1972 11.5571 20.4785 11.8384 20.4785 12.1821V15.3071C20.4785 15.6509 20.1972 15.9321 19.8535 15.9321Z" fill="#A86A3F"/>
<path d="M17.3555 12.4946C18.043 12.4946 18.6055 13.0571 18.6055 13.7446C18.6055 14.4322 18.043 14.9946 17.3555 14.9946C16.668 14.9946 16.1055 14.4322 16.1055 13.7446C16.1055 13.0571 16.668 12.4946 17.3555 12.4946Z" fill="#EFC75E"/>
<path d="M17.668 14.6821C16.9805 14.6821 16.418 14.1197 16.418 13.4321C16.418 13.1665 16.4961 12.9165 16.6367 12.7134C16.3086 12.9321 16.1055 13.3071 16.1055 13.7446C16.1055 14.4321 16.6679 14.9946 17.3555 14.9946C17.7774 14.9946 18.1523 14.7759 18.3867 14.4634C18.1836 14.604 17.9336 14.6821 17.668 14.6821Z" fill="#D7B354"/>
<path d="M18.293 19.2134H2.04298C1.18359 19.2134 0.480469 18.5103 0.480469 17.6509V18.2759C0.480469 19.1353 1.18359 19.8384 2.04298 19.8384H18.293C19.1524 19.8384 19.8555 19.1353 19.8555 18.2759V17.6509C19.8555 18.5103 19.1523 19.2134 18.293 19.2134Z" fill="#B27245"/>
<path d="M18.293 7.02589H1.73048C1.04295 7.02589 0.480469 6.46337 0.480469 5.77588V6.40088C0.480469 7.08838 1.04295 7.6509 1.73048 7.6509H18.293C19.1524 7.6509 19.8555 8.35402 19.8555 9.21341V8.58841C19.8555 7.72901 19.1523 7.02589 18.293 7.02589Z" fill="#CA8B5F"/>
</g>
<defs>
<clipPath id="clip0_359_12">
<rect width="20" height="20" fill="white" transform="translate(0.476562 0.92041)"/>
</clipPath>
</defs>
</svg>
