<svg width="48" height="21" viewBox="0 0 48 21" fill="none" xmlns="http://www.w3.org/2000/svg">
<g clip-path="url(#clip0_359_25)">
<path d="M20.7561 18.6865H16.8906L19.3084 3.66748H23.1736L20.7561 18.6865Z" fill="#00579F"/>
<path d="M34.767 4.03444C34.0046 3.73055 32.7953 3.39502 31.3 3.39502C27.4828 3.39502 24.7948 5.44007 24.7784 8.36386C24.7466 10.521 26.7029 11.7192 28.166 12.4384C29.6614 13.1734 30.1699 13.6531 30.1699 14.3083C30.1546 15.3145 28.9614 15.7782 27.8486 15.7782C26.3053 15.7782 25.4784 15.5391 24.2218 14.9794L23.7128 14.7394L23.1719 18.1108C24.0785 18.5258 25.7488 18.894 27.4828 18.9102C31.5387 18.9102 34.1792 16.8968 34.2104 13.781C34.2259 12.0713 33.1929 10.7612 30.9659 9.6907C29.6139 9.0035 28.7859 8.54012 28.7859 7.83699C28.8019 7.19779 29.4863 6.54307 31.0124 6.54307C32.269 6.511 33.1923 6.81447 33.8917 7.11815L34.2413 7.27763L34.767 4.03444Z" fill="#00579F"/>
<path d="M39.9061 13.3658C40.2245 12.503 41.4494 9.16362 41.4494 9.16362C41.4333 9.19569 41.7671 8.28486 41.958 7.72572L42.2281 9.01985C42.2281 9.01985 42.9601 12.6149 43.119 13.3658C42.515 13.3658 40.6697 13.3658 39.9061 13.3658ZM44.6775 3.66748H41.6876C40.7656 3.66748 40.0651 3.93888 39.6673 4.91362L33.9258 18.6864H37.9816C37.9816 18.6864 38.6494 16.8326 38.7929 16.4334C39.2378 16.4334 43.1833 16.4334 43.7557 16.4334C43.8666 16.9607 44.2169 18.6864 44.2169 18.6864H47.7959L44.6775 3.66748Z" fill="#00579F"/>
<path d="M13.6624 3.66748L9.87694 13.9091L9.46327 11.832C8.76343 9.43523 6.56853 6.83125 4.11914 5.53648L7.58651 18.6706H11.6741L17.7497 3.66748H13.6624Z" fill="#00579F"/>
<path d="M6.36077 3.66748H0.141748L0.078125 3.97094C4.92936 5.21729 8.14225 8.22158 9.46224 11.8326L8.11032 4.92997C7.88774 3.97073 7.20373 3.69912 6.36077 3.66748Z" fill="#FAA61A"/>
</g>
<defs>
<clipPath id="clip0_359_25">
<rect width="47.7765" height="20" fill="white" transform="translate(0.078125 0.92041)"/>
</clipPath>
</defs>
</svg>
