<svg width="48" height="20" viewBox="0 0 48 20" fill="none" xmlns="http://www.w3.org/2000/svg">
<path fill-rule="evenodd" clip-rule="evenodd" d="M40.9563 2.6665H33.0059C33.4333 5.47892 35.998 8.10989 38.8191 8.10989H45.1453C45.2308 7.83772 45.2308 7.47483 45.2308 7.20266C45.2308 4.66241 43.35 2.6665 40.9563 2.6665Z" fill="url(#paint0_linear_359_38)"/>
<path fill-rule="evenodd" clip-rule="evenodd" d="M33.6895 8.56348V15.3677H37.5365V11.7388H40.956C42.8368 11.7388 44.4611 10.3779 44.974 8.56348H33.6895Z" fill="#4DB45F"/>
<path fill-rule="evenodd" clip-rule="evenodd" d="M20.0156 2.6665V15.3677H23.4352C23.4352 15.3677 24.2901 15.3677 24.7175 14.4605C27.0257 9.56146 27.7096 8.10989 27.7096 8.10989H28.1371V15.3677H31.9841V2.6665H28.5645C28.5645 2.6665 27.7096 2.75723 27.2822 3.57374C25.3159 7.747 24.2901 9.92435 24.2901 9.92435H23.8626V2.6665H20.0156Z" fill="#4DB45F"/>
<path fill-rule="evenodd" clip-rule="evenodd" d="M3.77148 15.3677V2.6665H7.61849C7.61849 2.6665 8.72985 2.6665 9.32828 4.48097C10.8671 9.28929 11.0381 9.92435 11.0381 9.92435C11.0381 9.92435 11.38 8.74495 12.7478 4.48097C13.3463 2.6665 14.4576 2.6665 14.4576 2.6665H18.3046V15.3677H14.4576V8.56351H14.0302L11.8929 15.3677H10.1832L8.04594 8.56351H7.61849V15.3677H3.77148Z" fill="#4DB45F"/>
<defs>
<linearGradient id="paint0_linear_359_38" x1="32.9838" y1="5.3882" x2="45.2308" y2="5.3882" gradientUnits="userSpaceOnUse">
<stop stop-color="#00B4E6"/>
<stop offset="1" stop-color="#088CCB"/>
</linearGradient>
</defs>
</svg>
