<svg width="34" height="34" viewBox="0 0 34 34" fill="none" xmlns="http://www.w3.org/2000/svg">
<path d="M33.0893 22.3429C33.0893 22.7132 32.9422 23.0684 32.6803 23.3303C32.4184 23.5922 32.0632 23.7393 31.6929 23.7393H27.5036V26.5321H30.2964C30.6668 26.5321 31.022 26.6793 31.2839 26.9411C31.5457 27.203 31.6929 27.5582 31.6929 27.9286C31.6929 28.2989 31.5457 28.6541 31.2839 28.916C31.022 29.1779 30.6668 29.325 30.2964 29.325H27.5036V32.1179C27.5036 32.4882 27.3565 32.8434 27.0946 33.1053C26.8327 33.3672 26.4775 33.5143 26.1072 33.5143C25.7368 33.5143 25.3816 33.3672 25.1197 33.1053C24.8578 32.8434 24.7107 32.4882 24.7107 32.1179V22.3429C24.7107 21.9725 24.8578 21.6173 25.1197 21.3554C25.3816 21.0936 25.7368 20.9464 26.1072 20.9464H31.6929C32.0632 20.9464 32.4184 21.0936 32.6803 21.3554C32.9422 21.6173 33.0893 21.9725 33.0893 22.3429ZM10.0482 25.8339C10.0482 27.1302 9.53329 28.3733 8.61671 29.2899C7.70012 30.2065 6.45697 30.7214 5.16072 30.7214H3.76429V32.1179C3.76429 32.4882 3.61717 32.8434 3.35529 33.1053C3.09341 33.3672 2.73822 33.5143 2.36786 33.5143C1.99751 33.5143 1.64232 33.3672 1.38044 33.1053C1.11856 32.8434 0.971436 32.4882 0.971436 32.1179V22.3429C0.971436 21.9725 1.11856 21.6173 1.38044 21.3554C1.64232 21.0936 1.99751 20.9464 2.36786 20.9464H5.16072C6.45697 20.9464 7.70012 21.4614 8.61671 22.3779C9.53329 23.2945 10.0482 24.5377 10.0482 25.8339ZM7.25536 25.8339C7.25536 25.2784 7.03468 24.7456 6.64186 24.3528C6.24904 23.96 5.71626 23.7393 5.16072 23.7393H3.76429V27.9286H5.16072C5.71626 27.9286 6.24904 27.7079 6.64186 27.3151C7.03468 26.9222 7.25536 26.3895 7.25536 25.8339ZM22.6161 27.2304C22.6161 28.897 21.954 30.4953 20.7756 31.6738C19.5971 32.8522 17.9988 33.5143 16.3322 33.5143H13.5393C13.1689 33.5143 12.8138 33.3672 12.5519 33.1053C12.29 32.8434 12.1429 32.4882 12.1429 32.1179V22.3429C12.1429 21.9725 12.29 21.6173 12.5519 21.3554C12.8138 21.0936 13.1689 20.9464 13.5393 20.9464H16.3322C17.9988 20.9464 19.5971 21.6085 20.7756 22.7869C21.954 23.9654 22.6161 25.5638 22.6161 27.2304ZM19.8232 27.2304C19.8232 26.3045 19.4554 25.4165 18.8007 24.7618C18.146 24.1071 17.258 23.7393 16.3322 23.7393H14.9357V30.7214H16.3322C17.258 30.7214 18.146 30.3536 18.8007 29.6989C19.4554 29.0442 19.8232 28.1562 19.8232 27.2304ZM0.971436 15.3607V2.79286C0.971436 2.05215 1.26568 1.34177 1.78944 0.818009C2.31321 0.294247 3.02358 4.31774e-07 3.76429 4.31774e-07H20.5214C20.7049 -0.000143812 20.8865 0.0358544 21.0561 0.105939C21.2256 0.176023 21.3796 0.278819 21.5094 0.408456L31.2844 10.1835C31.414 10.3132 31.5168 10.4673 31.5869 10.6368C31.657 10.8063 31.693 10.988 31.6929 11.1714V15.3607C31.6929 15.7311 31.5457 16.0863 31.2839 16.3481C31.022 16.61 30.6668 16.7571 30.2964 16.7571C29.9261 16.7571 29.5709 16.61 29.309 16.3481C29.0471 16.0863 28.9 15.7311 28.9 15.3607V12.5679H20.5214C20.1511 12.5679 19.7959 12.4207 19.534 12.1589C19.2721 11.897 19.125 11.5418 19.125 11.1714V2.79286H3.76429V15.3607C3.76429 15.7311 3.61717 16.0863 3.35529 16.3481C3.09341 16.61 2.73822 16.7571 2.36786 16.7571C1.99751 16.7571 1.64232 16.61 1.38044 16.3481C1.11856 16.0863 0.971436 15.7311 0.971436 15.3607ZM21.9179 9.775H26.9258L21.9179 4.76706V9.775Z" fill="#073F88"/>
</svg>
