<svg width="97" height="56" viewBox="0 0 97 56" fill="none" xmlns="http://www.w3.org/2000/svg">
<g clip-path="url(#clip0_14_505)">
<path d="M63.1245 54.7356C62.6069 55.0673 62.0682 55.3989 61.5189 55.6995C61.3431 55.8281 61.1421 55.9195 60.9284 55.9679C60.7148 56.0163 60.4932 56.0207 60.2778 55.9807C60.0623 55.9408 59.8577 55.8574 59.6768 55.7358C59.4958 55.6143 59.3426 55.4572 59.2267 55.2746C58.7101 54.6804 58.2537 54.0382 57.8641 53.3571C57.0191 51.7506 55.3079 49.2113 54.4523 47.6462C53.5967 46.0812 52.4136 44.4539 51.3996 42.8578C50.6285 41.6347 48.9067 38.857 48.1673 37.6133C47.2272 36.0067 46.0547 34.5039 45.2519 32.8352C44.6392 31.6329 42.6006 28.4613 41.9034 27.3108C41.3964 26.4609 40.8471 25.6525 40.3401 24.8026C39.7169 23.7661 39.1782 22.6468 38.5444 21.5999C37.7627 20.294 36.9177 19.0191 36.0938 17.7339C35.4706 16.7597 34.953 16.6975 33.9812 17.2261C33.0901 17.7162 32.2263 18.2524 31.3932 18.8326C31.2435 18.9219 31.1188 19.0463 31.0303 19.1947C30.9418 19.343 30.8923 19.5107 30.8862 19.6825C30.8809 20.062 30.7736 20.4334 30.5752 20.7591C30.3767 21.0849 30.0941 21.3535 29.756 21.5377C29.1179 21.9856 28.402 22.3157 27.6434 22.512C27.3556 22.6619 27.0226 22.7056 26.7048 22.6352C26.387 22.5649 26.1054 22.3851 25.9111 22.1285C25.7949 21.9834 25.6153 21.8694 25.4991 21.7243C24.7069 20.6878 23.8724 19.6514 23.1647 18.6149C22.2675 17.2392 21.4527 15.8134 20.7246 14.3447C20.4796 13.8085 20.3193 13.2388 20.2493 12.6553C20.2373 12.4134 20.3121 12.175 20.4605 11.9816C20.6345 11.7158 20.8607 11.4868 21.126 11.3079C21.7809 10.8622 22.457 10.4476 23.133 10.033C23.3309 9.88165 23.5705 9.79187 23.8209 9.77525C24.0712 9.75863 24.321 9.81592 24.5379 9.93975C24.7448 10.0559 24.9815 10.1108 25.2195 10.098C25.4576 10.0851 25.6867 10.0049 25.8794 9.86719C27.2948 9.04839 28.7102 8.23995 30.1046 7.40042C30.675 7.05838 31.1609 6.6438 31.763 6.27067L34.6995 4.38431L37.731 2.38394C38.0057 2.20775 38.2803 2.04191 38.5655 1.88644C39.0197 1.62733 39.4845 1.39931 39.9387 1.15056C40.3929 0.901805 40.8683 0.580502 41.3436 0.311022C41.6842 0.0736287 42.1 -0.0366368 42.5161 8.33808e-05C43.1881 0.0582292 43.8399 0.256087 44.428 0.580502C44.9773 0.922534 45.4843 1.27493 46.0653 1.61696C47.1216 2.20775 48.1779 2.75707 49.2342 3.34785C49.6567 3.58624 50.0581 3.87645 50.4806 4.13556C50.9031 4.39468 51.1989 4.51905 51.5369 4.71598L51.6953 4.96473C51.6953 4.96473 51.6425 5.05801 51.6953 5.09947C51.8218 5.42084 51.8191 5.77738 51.6877 6.09685C51.5563 6.41632 51.306 6.67483 50.9876 6.82C50.7341 6.98583 50.4806 7.15167 50.2271 7.29677C49.2975 7.815 48.3574 8.33323 47.4384 8.85146C46.5195 9.36969 45.4209 10.0952 44.3646 10.7482C44.2081 10.8111 44.0673 10.9065 43.9519 11.0278C43.8365 11.1491 43.7492 11.2935 43.696 11.451C43.6429 11.6086 43.625 11.7755 43.6438 11.9405C43.6626 12.1054 43.7175 12.2644 43.8048 12.4065C43.9663 12.808 44.1533 13.1991 44.3646 13.5777C44.4914 13.785 44.6921 13.9405 44.8188 14.1478C45.1674 14.7386 45.4737 15.3604 45.8751 15.9305C46.9314 17.4955 47.9877 19.0399 49.044 20.6153C50.6813 23.0406 53.5122 27.57 55.2022 29.9434C56.3642 31.5811 57.505 33.2394 58.519 34.9703C59.0366 35.8824 60.6316 38.2455 61.202 39.1161C61.4661 39.5514 61.8358 39.9246 62.121 40.3495C62.871 41.4689 63.5998 42.6194 64.3604 43.7387C65.0153 44.6819 66.3568 46.6201 67.0328 47.5529C67.4764 48.1748 67.9518 48.7656 68.3426 49.4186C69.663 51.6677 65.7547 53.0358 64.3287 53.9064L63.1245 54.7356Z" fill="#D24A43"/>
<path d="M8.00677 15.1739C8.13306 15.2216 8.26403 15.2563 8.3976 15.2776C8.90462 15.3501 9.0525 15.4849 9.08419 15.9824C9.12008 16.1531 9.14128 16.3264 9.14757 16.5006C9.14757 16.8323 9.08419 17.1743 9.09476 17.5371C9.09476 18.5735 9.1687 25.6733 9.1687 26.7305C9.1687 27.7877 9.1687 28.8034 9.1687 29.8399C9.1687 30.0161 9.1687 30.2026 9.1687 30.3788C9.1687 30.8452 9.09476 37.3438 9.07363 37.8102C9.0525 38.2767 9.07363 38.4839 9.07363 38.8467C9.07363 39.2095 9.07363 39.479 9.07363 39.8003C9.10916 40.6815 9.48712 41.5159 10.1299 42.1323L11.2813 43.2517C11.3409 43.3149 11.4083 43.3706 11.482 43.4175C11.7355 43.5833 11.9468 43.5419 12.0524 43.2724C12.1649 43.0158 12.2327 42.7426 12.2531 42.464C12.3165 41.4897 12.327 40.5258 12.3904 39.5515C12.5383 37.2713 12.4855 28.9796 12.4432 26.6994C12.4432 25.3313 12.3693 17.9309 12.3693 16.5524C12.3535 16.4147 12.3535 16.2756 12.3693 16.1378C12.4644 15.5367 12.6228 15.3605 13.1826 15.3709C13.7425 15.3812 14.2389 15.4227 14.7988 15.4434C14.9088 15.4452 15.0144 15.4861 15.096 15.5585C15.1776 15.631 15.2296 15.73 15.2424 15.8373C15.2634 15.9747 15.2634 16.1144 15.2424 16.2519C15.2424 17.2158 15.2424 18.1693 15.2424 19.1229C15.2424 21.0299 15.3164 28.9485 15.3481 30.8556C15.3481 31.8921 15.3481 38.9607 15.3481 39.9972C15.3481 41.3031 15.2741 42.6091 15.2107 43.915C15.1897 44.3723 15.1261 44.8268 15.0206 45.2728C14.9218 45.6408 14.7093 45.9699 14.4124 46.2148C14.1155 46.4597 13.7487 46.6086 13.3622 46.6409C12.552 46.7052 11.7366 46.628 10.9538 46.4129C10.7324 46.3423 10.535 46.2132 10.3834 46.0397C9.86586 45.5008 9.32714 44.9411 8.86237 44.3918C8.64055 44.1534 8.42929 43.915 8.1969 43.7077C8.13453 43.6328 8.05772 43.5706 7.97085 43.5249C7.88398 43.4791 7.78877 43.4506 7.69066 43.441C7.59254 43.4313 7.49346 43.4408 7.39908 43.4688C7.30469 43.4968 7.21686 43.5427 7.1406 43.6041C6.947 43.7277 6.76653 43.87 6.60189 44.029C5.89593 44.6706 5.14787 45.2661 4.36253 45.8117C3.86381 46.1957 3.25324 46.4136 2.61964 46.4336C2.28162 46.4336 1.94361 46.4854 1.56334 46.5062C1.45478 46.5219 1.34445 46.5219 1.23589 46.5062C0.433099 46.3921 0.179587 46.1227 0.179587 45.3868C0.179587 43.7699 0.116209 42.1427 0.0845197 40.5154C0.0845197 39.3235 0.0528307 32.1304 1.57589e-05 30.9385C-0.00525361 30.8522 -0.00525361 30.7657 1.57589e-05 30.6794C0.0950827 29.4149 1.57589e-05 28.1401 1.57589e-05 26.8756C1.57589e-05 25.3209 1.57589e-05 17.7444 1.57589e-05 16.1897C-0.0105033 16.0863 -0.0105033 15.9821 1.57589e-05 15.8787C0.0528307 15.516 0.179587 15.402 0.559855 15.3812L2.00699 15.2879C2.16757 15.2875 2.32747 15.3084 2.48232 15.3501C2.5908 15.3691 2.69028 15.4216 2.76627 15.4999C2.84226 15.5782 2.89081 15.6782 2.90484 15.7855C2.95274 16.0459 2.98449 16.3089 2.99991 16.5732C2.99991 17.3505 2.99991 18.1279 2.99991 18.9052C2.99991 19.6825 2.87315 26.4299 2.8309 27.1969C2.8309 27.7255 2.8309 28.2333 2.8309 28.7827C2.8309 29.5289 2.8309 30.2752 2.8309 31.0111C2.8309 32.8456 2.8309 40.702 2.9154 42.5365C2.92496 42.7456 2.96773 42.9519 3.04216 43.148C3.12666 43.3657 3.28511 43.4071 3.46468 43.2724C4.29898 42.7433 5.04686 42.0933 5.68291 41.3446C6.14407 40.7491 6.38942 40.0195 6.38007 39.2717C6.38007 38.6394 6.38007 32.0164 6.38007 31.3427C6.38007 30.2026 6.38007 29.0522 6.27444 27.912C6.27444 27.2176 6.14768 26.5439 6.10543 25.8391C6.10543 25.3831 6.10543 18.9052 6.10543 18.4492C6.10543 17.8169 6.15824 17.1847 6.18993 16.5421C6.18993 16.4384 6.18993 16.3348 6.18993 16.2311C6.18993 15.6093 6.35894 15.4331 6.98216 15.2776C7.07726 15.2484 7.16925 15.2103 7.25679 15.1636L8.00677 15.1739Z" fill="#474747"/>
<path d="M54.2833 15.1738C54.4267 15.2385 54.5556 15.3304 54.6626 15.4443C54.7696 15.5581 54.8525 15.6917 54.9065 15.8372C55.2662 16.5493 55.4541 17.333 55.4558 18.1277C55.4558 19.2989 55.4558 32.4931 55.4558 33.6747C55.4558 34.5557 55.5297 35.4366 55.5297 36.3176C55.5297 36.9188 55.4135 37.5199 55.4663 38.1107C55.5415 38.8788 55.5697 39.6506 55.5508 40.422C55.5508 40.8884 55.4663 41.3445 55.4875 41.8005C55.4875 42.837 55.6142 43.8734 55.667 44.9099C55.667 45.2208 55.667 45.5421 55.667 45.8634C55.6621 46.0407 55.5971 46.2113 55.4823 46.3484C55.3676 46.4854 55.2096 46.581 55.0333 46.6201C54.4094 46.8018 53.7452 46.8018 53.1214 46.6201C52.9102 46.5692 52.7243 46.4465 52.5967 46.2738C52.469 46.1011 52.4079 45.8896 52.4242 45.6769C52.4876 45.0239 52.5087 44.3709 52.5298 43.718C52.5298 42.4328 52.5298 41.1372 52.5298 39.852C52.5298 38.1314 52.5932 36.4213 52.6355 34.6697C52.6355 33.9441 52.7094 33.2186 52.6988 32.5035C52.6883 31.7883 52.6988 19.3404 52.5826 18.7807C52.4664 18.221 52.2024 18.0448 51.7059 18.4283C51.3864 18.7092 51.0897 19.0141 50.8186 19.3404C50.5651 19.641 50.3327 19.9519 50.0792 20.2525C49.6987 20.7023 49.483 21.2643 49.4666 21.8486C49.3081 24.1081 49.3715 38.432 49.3504 40.6604C49.3504 40.9921 49.2553 41.3237 49.2659 41.6969C49.2659 42.526 49.3821 43.3448 49.4243 44.174C49.4243 44.7959 49.4243 45.4074 49.4243 46.0293C49.4314 46.145 49.403 46.2602 49.3427 46.36C49.2825 46.4597 49.1932 46.5395 49.0863 46.589C48.8209 46.7369 48.5274 46.8298 48.224 46.8619C47.9206 46.894 47.6136 46.8646 47.3223 46.7755C46.4138 46.4646 46.3505 46.4128 46.4033 45.5007C46.4561 44.5886 46.53 43.7802 46.5934 42.9199C46.5934 42.7955 46.5934 42.6711 46.5934 42.5468C46.5934 41.3652 46.5934 40.1836 46.5934 38.9917C46.5934 37.5303 46.53 24.0356 46.4878 22.5638C46.4878 22.1492 46.4878 21.7243 46.3927 21.2993C46.3359 20.7895 46.1095 20.3123 45.7484 19.9415L44.3646 18.5216L44.1006 18.3454C43.8365 18.1899 43.7308 18.221 43.5935 18.4905C43.4562 18.76 43.3083 31.0939 43.3611 31.4359C43.3611 33.5814 43.3611 35.7165 43.3611 37.862C43.3611 38.8984 43.2344 39.8727 43.2978 40.8677C43.4034 42.4742 43.3506 44.0807 43.3823 45.6873C43.3823 46.3713 43.3295 46.4542 42.6745 46.589C42.1246 46.705 41.5534 46.68 41.0162 46.5164C40.657 46.392 40.562 46.2884 40.562 45.8945C40.562 45.2727 40.6253 44.6611 40.6465 44.0496C40.6465 43.7594 40.6465 43.4796 40.6465 43.1997C40.6465 39.3925 40.6465 35.5921 40.6465 31.7987C40.6465 30.7622 40.7098 17.7857 40.7626 16.8011C40.8072 16.3052 41.0322 15.8417 41.3964 15.4951C41.5914 15.3535 41.8092 15.2449 42.0408 15.1738H43.8787C43.9421 15.1738 43.9949 15.2671 44.0583 15.2671C44.6471 15.3477 45.1907 15.6218 45.6005 16.0445C46.2343 16.6456 46.8575 17.2571 47.5018 17.8375C47.5667 17.9233 47.6511 17.9929 47.7483 18.0409C47.8455 18.0889 47.9528 18.1139 48.0617 18.1139C48.1705 18.1139 48.2778 18.0889 48.375 18.0409C48.4722 17.9929 48.5567 17.9233 48.6215 17.8375C48.8786 17.5962 49.1088 17.3287 49.3081 17.0395C49.8053 16.231 50.5424 15.5909 51.4207 15.2049L54.2833 15.1738Z" fill="#474747"/>
<path d="M22.9323 15.1739C22.9323 15.1739 23.0168 15.2569 23.059 15.2569L24.9392 15.402C25.1891 15.4146 25.4369 15.4528 25.6786 15.516C25.9346 15.5771 26.1686 15.7061 26.3549 15.8889C26.5412 16.0717 26.6727 16.3012 26.7349 16.5524C26.8828 17.1743 26.9673 17.7962 27.0835 18.4181C27.1997 19.0399 27.2314 25.6733 27.1786 26.3366C27.1258 27 26.9884 27.8706 26.8511 28.6272C26.8163 28.8203 26.7263 28.9997 26.5917 29.1447C26.4571 29.2896 26.2833 29.3941 26.0906 29.446C25.5084 29.679 24.8909 29.8156 24.2632 29.8502L21.7598 30.0575C21.2844 30.0575 21.0732 30.3063 21.0837 30.7623C21.0943 31.2184 21.0837 37.6962 21.1894 38.1523C21.1905 38.2322 21.2084 38.311 21.242 38.3838C21.2757 38.4566 21.3242 38.5218 21.3847 38.5753C21.4452 38.6288 21.5163 38.6695 21.5936 38.6948C21.6708 38.7201 21.7526 38.7295 21.8337 38.7223C22.0661 38.7223 22.2985 38.7223 22.5309 38.7223H24.4745C24.7996 38.7199 25.1139 38.8372 25.3552 39.0511C25.5965 39.265 25.7473 39.5599 25.7778 39.8775C25.8083 40.1952 25.7163 40.5125 25.52 40.7668C25.3237 41.0212 25.0373 41.194 24.7174 41.2513C23.566 41.2513 22.4041 41.2513 21.2633 41.2513C20.7611 41.211 20.2671 41.1029 19.795 40.93C19.3919 40.7931 19.0372 40.5455 18.7732 40.2166C18.5092 39.8877 18.3469 39.4914 18.3057 39.0747C18.1367 38.1937 18.0627 31.2805 18.0838 30.3788C18.1367 28.8345 18.1367 27.2694 18.1789 25.7251C18.1789 24.9892 18.2423 18.2315 18.2951 17.4956C18.3372 16.9124 18.5665 16.3573 18.95 15.9098C19.1539 15.6968 19.4015 15.5285 19.6764 15.416C19.9512 15.3034 20.2473 15.2492 20.545 15.2569C20.883 15.2569 21.2316 15.2569 21.6013 15.2569C21.6993 15.2351 21.7949 15.2039 21.8865 15.1636L22.9323 15.1739ZM22.7738 17.7962H21.971C21.4746 17.7962 21.2422 18.0242 21.1999 18.501C21.1577 18.9778 21.126 25.7148 21.126 26.2952C21.126 26.5025 21.126 26.7201 21.126 26.9274C21.0626 27.4975 21.126 27.6426 21.7281 27.6322C22.231 27.6198 22.7323 27.5713 23.228 27.4871C23.507 27.4414 23.7799 27.3649 24.0414 27.2591C24.1898 27.2145 24.3181 27.1211 24.4047 26.9947C24.4912 26.8682 24.5308 26.7164 24.5167 26.5646C24.5167 25.8599 24.4428 19.1436 24.39 18.4388C24.3943 18.3668 24.3835 18.2947 24.3584 18.2269C24.3333 18.1592 24.2943 18.0972 24.2438 18.0448C24.1934 17.9923 24.1325 17.9506 24.065 17.9221C23.9975 17.8936 23.9247 17.879 23.8512 17.8791C23.4498 17.8273 23.1118 17.8273 22.7738 17.7962Z" fill="#474747"/>
<path d="M97 17.1949C96.8884 17.4031 96.7165 17.5742 96.506 17.6867C96.2955 17.7992 96.0557 17.8481 95.8169 17.8272C95.2254 17.8272 94.6339 17.8894 94.0424 17.9308C93.7255 17.9308 93.6938 17.9826 93.6304 18.3039C93.5765 18.5282 93.5482 18.7576 93.5459 18.988C93.5459 19.8275 93.6093 32.7108 93.6093 33.4985C93.6093 34.5971 93.6093 35.6854 93.5565 36.784C93.5565 36.784 93.5565 36.8462 93.5565 36.8877C93.5565 37.8516 93.472 38.8259 93.4191 39.7898C93.4191 40.3495 93.3346 40.9195 93.3452 41.4792C93.3486 42.6214 93.4689 43.7603 93.7043 44.8788C93.7979 45.3141 93.7499 45.7673 93.567 46.1744C93.5338 46.3326 93.4391 46.4718 93.3031 46.5627C93.1671 46.6537 93.0004 46.6891 92.8382 46.6615C92.2572 46.6615 91.6868 46.5993 91.1164 46.5475C90.546 46.4957 90.4404 46.3195 90.4087 45.8013C90.3822 45.6087 90.3822 45.4134 90.4087 45.2208C90.5863 43.9991 90.6535 42.7644 90.6094 41.531C90.6094 39.2301 90.6094 36.9395 90.6094 34.6386C90.6094 33.9856 90.715 33.3326 90.7045 32.69C90.6939 32.0474 90.7045 19.216 90.6094 18.5423C90.6128 18.4666 90.5996 18.391 90.5706 18.3208C90.5416 18.2505 90.4976 18.1872 90.4415 18.1351C90.3854 18.083 90.3185 18.0433 90.2454 18.0188C90.1723 17.9943 90.0947 17.9855 90.0179 17.993C89.3207 17.9412 88.6235 17.9205 87.9053 17.879C87.7825 17.8945 87.6583 17.8945 87.5356 17.879C87.3666 17.8168 87.1447 17.765 87.0814 17.6406C86.8904 17.3505 86.7684 17.0219 86.7245 16.6792C86.6806 16.3364 86.716 15.9884 86.8278 15.661C86.8532 15.5773 86.9026 15.5026 86.97 15.4456C87.0374 15.3887 87.12 15.3519 87.2081 15.3397C87.4299 15.3397 87.6412 15.2671 87.8524 15.2671L90.546 15.3293C91.1587 15.3293 91.7608 15.2775 92.3734 15.2671H94.7501C94.8826 15.2458 95.0133 15.2147 95.1409 15.1738H95.3522L95.743 15.2775L96.324 15.3811C96.465 15.409 96.5933 15.4803 96.6902 15.5847C96.7871 15.6891 96.8475 15.8211 96.8627 15.9615C96.8627 16.0963 96.9366 16.2207 96.9789 16.345L97 17.1949Z" fill="#474747"/>
<path d="M32.9249 15.2466L35.6713 15.3813C35.7943 15.374 35.9174 15.3953 36.0304 15.4435C36.6752 15.7391 37.1759 16.2714 37.4247 16.9256C37.7542 19.9616 37.8354 23.0186 37.6677 26.0672C37.5726 26.5855 37.5726 27.1037 37.5303 27.6427C37.4881 28.1816 37.4775 28.42 37.4247 28.8035C37.3828 29.1662 37.2051 29.5007 36.9259 29.7421C36.6468 29.9834 36.2862 30.1143 35.9142 30.1094H33.696C33.0622 30.1094 32.7664 30.3582 32.777 31.0215C32.777 31.3532 32.8404 31.6849 32.8509 32.058C32.8508 32.1458 32.8754 32.232 32.922 32.307C32.9686 32.3819 33.0354 32.4428 33.115 32.4829C33.4063 32.6918 33.7577 32.8043 34.1185 32.8042C34.8368 32.8042 35.5551 32.8768 36.2311 32.9286C36.5814 32.9394 36.9159 33.0746 37.1723 33.309C37.4288 33.5435 37.5898 33.8613 37.6254 34.2035C37.7522 35.2399 37.8789 42.3604 37.8578 43.4383C37.8578 43.8218 37.9212 44.1949 37.8578 44.5888C37.7629 45.1044 37.5098 45.5793 37.1322 45.9497C36.7546 46.3202 36.2707 46.5686 35.7452 46.6617C34.7109 46.7774 33.6683 46.8051 32.6291 46.7446C32.1221 46.7446 31.6256 46.6306 31.1292 46.5684C30.8563 46.5471 30.6 46.4311 30.4065 46.2411C30.2129 46.0512 30.0946 45.7998 30.0729 45.532C30.0006 45.1526 29.9652 44.7674 29.9672 44.3815C29.9672 42.8061 30.0306 35.2192 30.0623 33.6541C30.0623 33.0634 30.0623 32.4829 30.0623 31.9025C30.0623 30.3478 29.9989 28.7931 29.9567 27.2384C29.9567 26.202 29.8827 19.1748 29.8722 18.159C29.8555 17.5931 29.898 17.027 29.9989 16.4696C30.1679 15.6715 30.4637 15.2673 31.3087 15.2984H32.9354L32.9249 15.2466ZM33.8967 17.8896C33.6009 17.8896 33.284 17.9828 32.9777 18.0554C32.8973 18.0697 32.8234 18.1084 32.7666 18.166C32.7097 18.2237 32.6727 18.2973 32.6608 18.3767C32.5129 19.1748 32.5235 26.0051 32.5657 26.8135C32.5625 26.9743 32.6219 27.1304 32.7318 27.2498C32.8417 27.3691 32.9938 27.4429 33.1573 27.4561C33.4745 27.5184 33.8012 27.5184 34.1185 27.4561C34.615 27.3421 34.8368 27.1866 34.9424 26.6891C35.0058 26.3471 35.0269 25.9947 35.0903 25.6527C35.1537 25.3106 35.1537 18.8431 35.0903 18.3974C35.0775 18.293 35.0321 18.1951 34.9602 18.1171C34.8883 18.0391 34.7935 17.985 34.6889 17.9621C34.4248 17.9621 34.1819 17.9414 33.8967 17.8896ZM33.8967 35.1985C33.7349 35.1881 33.5726 35.1881 33.4108 35.1985C33.1995 35.1985 32.9777 35.2917 32.9143 35.5405C32.8175 35.8217 32.7606 36.1147 32.7453 36.4111C32.7453 36.8257 32.8615 43.2621 32.9354 43.6664C32.9483 43.7818 33.0037 43.8888 33.0912 43.967C33.1787 44.0453 33.2924 44.0895 33.4108 44.0913C33.8982 44.134 34.3894 44.0847 34.8579 43.9462C34.939 43.9315 35.0121 43.8891 35.0644 43.8264C35.1166 43.7638 35.1445 43.6851 35.1431 43.6042C35.1431 43.1378 35.1431 36.6495 35.1431 36.1831C34.9847 35.3021 34.8579 35.2399 33.9495 35.2399L33.8967 35.1985Z" fill="#474747"/>
<path d="M67.7933 34.2033C67.7933 35.1361 67.7933 36.0793 67.7933 37.0121C67.7933 37.945 67.6772 38.6601 67.561 39.4789C67.4789 39.9605 67.2262 40.3981 66.8474 40.7148C66.4687 41.0314 65.9882 41.2067 65.4906 41.2098C64.7512 41.2098 64.0224 41.3031 63.2829 41.3238C62.2989 41.3378 61.3167 41.2369 60.357 41.0232C59.9366 40.9518 59.5481 40.7571 59.2427 40.4647C58.9372 40.1724 58.7291 39.7962 58.6458 39.3856C58.4838 38.8999 58.3948 38.3937 58.3817 37.8828C58.3817 36.8463 58.3289 35.7269 58.2655 34.649C58.181 33.2809 58.3183 19.8691 58.3183 18.5009C58.3323 18.0442 58.3889 17.5898 58.4873 17.1432C58.6123 16.635 58.9068 16.1825 59.3241 15.8576C59.7413 15.5327 60.2574 15.354 60.7901 15.3501H65.6491C66.092 15.3537 66.5218 15.4981 66.8741 15.7616C67.2264 16.025 67.4822 16.3934 67.6032 16.8115C67.6684 17.0309 67.7074 17.257 67.7194 17.4852C67.7194 19.0503 67.825 32.6486 67.8673 34.2241L67.7933 34.2033ZM61.202 34.0997V37.2091C61.1916 37.3505 61.1916 37.4925 61.202 37.634C61.2296 37.8683 61.3378 38.0864 61.5087 38.2522C61.6796 38.418 61.9031 38.5217 62.1421 38.5461C62.5477 38.6138 62.9619 38.6138 63.3675 38.5461C63.6968 38.4698 64.0134 38.3476 64.3076 38.1833C64.4236 38.1321 64.5206 38.0468 64.5849 37.939C64.6493 37.8313 64.6779 37.7066 64.6667 37.5822C64.6509 37.441 64.6509 37.2985 64.6667 37.1572C64.8093 36.0388 64.8093 34.9072 64.6667 33.7887C64.6509 33.6163 64.6509 33.4429 64.6667 33.2705C64.6765 33.1117 64.6765 32.9525 64.6667 32.7937C64.6667 32.1304 64.6667 19.4234 64.5505 18.7601C64.5268 18.5474 64.4285 18.3494 64.2724 18.2001C64.1163 18.0507 63.9122 17.9592 63.6949 17.9412C63.0317 17.8845 62.3637 17.9159 61.7091 18.0345C61.2337 18.1485 61.0964 18.304 61.0964 18.8119L61.202 34.0997Z" fill="#474747"/>
<path d="M82.6872 46.6409H77.9338C77.6064 46.6409 77.2789 46.7135 76.962 46.7031C75.9057 46.7031 74.8494 46.5891 73.7931 46.5477C73.2868 46.5114 72.7784 46.5114 72.2721 46.5477C71.992 46.589 71.7071 46.589 71.427 46.5477C71.0151 46.4855 70.8461 46.3507 70.7827 45.9569C70.7121 45.5214 70.6733 45.0815 70.6665 44.6406C70.6665 43.003 70.6665 41.355 70.6665 39.707C70.6665 37.7481 70.6031 35.7892 70.5609 33.8303C70.5609 32.8975 70.4975 19.9313 70.4658 18.9985C70.4658 18.3974 70.3707 17.7962 70.3707 17.2054C70.3775 16.7645 70.4163 16.3246 70.4869 15.8891C70.4869 15.5367 70.6665 15.4227 71.0151 15.4124C71.5538 15.4124 72.0714 15.4124 72.6312 15.4124C73.191 15.4124 73.3072 15.63 73.3917 16.1171C73.4836 16.9215 73.4587 17.7346 73.3178 18.5321V18.8534C73.3178 20.1593 73.2227 33.4986 73.2227 34.8045C73.2227 37.1159 73.2861 39.4272 73.3284 41.7385C73.3284 42.236 73.3812 42.7231 73.4234 43.2206C73.439 43.3985 73.5208 43.5646 73.6534 43.687C73.7859 43.8094 73.9598 43.8795 74.1417 43.8839C74.621 43.9532 75.1044 43.9913 75.5888 43.998C77.0677 43.998 78.5465 43.998 80.0147 43.998C81.2612 43.998 82.497 43.998 83.7435 43.8943C84.6202 43.8425 85.4864 43.7181 86.3631 43.6248C86.68 43.6248 86.9969 43.5212 87.3138 43.4901C87.4781 43.4539 87.6484 43.4529 87.8131 43.487C87.9779 43.5212 88.1332 43.5898 88.2685 43.6882C88.4038 43.7865 88.5159 43.9123 88.5972 44.057C88.6786 44.2016 88.7272 44.3618 88.7398 44.5266C88.7977 45.0536 88.7977 45.5853 88.7398 46.1123C88.7428 46.1744 88.7326 46.2363 88.7097 46.2943C88.6869 46.3522 88.652 46.4048 88.6073 46.4487C88.5625 46.4926 88.5089 46.5269 88.4498 46.5493C88.3908 46.5717 88.3277 46.5817 88.2644 46.5787C88.0532 46.5787 87.8314 46.6306 87.6201 46.6306H82.6872V46.6409Z" fill="#474747"/>
<path d="M76.0536 33.4157C76.0536 32.4828 76.0536 19.5063 76.0536 18.5735C76.0777 17.8847 76.2206 17.2048 76.4761 16.5628C76.5978 16.1816 76.8458 15.8512 77.1807 15.624C77.5156 15.3968 77.9182 15.2858 78.3246 15.3087C78.7894 15.3087 79.2647 15.3087 79.7295 15.3087H83.1308C83.4106 15.2742 83.6948 15.2995 83.9637 15.3829C84.2327 15.4664 84.48 15.6059 84.6888 15.792C84.8975 15.9782 85.0627 16.2064 85.173 16.4611C85.2834 16.7158 85.3362 16.991 85.3279 17.2676C85.4018 17.8998 85.4124 24.5228 85.4441 25.1862C85.4441 26.0464 85.4441 32.9285 85.5709 33.7888C85.5974 34.241 85.5974 34.6943 85.5709 35.1465C85.5709 35.7684 85.5709 36.3903 85.5709 37.0018C85.5659 37.8317 85.4703 38.6587 85.2856 39.4686C85.2805 39.5203 85.2805 39.5724 85.2856 39.6241C85.2827 39.982 85.1506 40.3273 84.9127 40.5986C84.6748 40.87 84.3466 41.0498 83.9864 41.1062C83.481 41.2326 82.9647 41.3124 82.4442 41.3446C81.2444 41.4068 80.042 41.4068 78.8422 41.3446C78.2894 41.3616 77.7465 41.1977 77.299 40.8787C76.8515 40.5597 76.5249 40.1037 76.3705 39.5826C76.2816 39.2786 76.2284 38.9656 76.212 38.6498C76.1487 36.9189 76.1064 35.188 76.0642 33.4675L76.0536 33.4157ZM78.8 33.8821C78.8 34.7112 78.9162 35.6026 78.9373 36.5043C78.9783 37.0828 79.1064 37.6521 79.3176 38.1937C79.3526 38.361 79.4475 38.5103 79.5851 38.6149C79.7226 38.7194 79.8938 38.7723 80.0675 38.7638C80.6379 38.7638 81.2189 38.7638 81.7893 38.7638C82.0188 38.764 82.2407 38.6837 82.4151 38.5373C82.5894 38.3909 82.7047 38.1882 82.74 37.9657C82.7879 37.6531 82.8196 37.3383 82.835 37.0225C82.835 36.3696 82.909 35.727 82.9301 35.074C82.941 35.0053 82.941 34.9354 82.9301 34.8667C82.9301 34.2656 82.835 33.6748 82.7822 33.0736C82.7717 33.0049 82.7717 32.935 82.7822 32.8663C82.9195 32.2652 82.8773 19.6411 82.7822 19.0503C82.6449 18.2315 82.3808 18.0138 81.5463 17.9517C81.1334 17.9552 80.7209 17.9794 80.3105 18.0242H79.9936C79.852 18.0133 79.7098 18.0326 79.5766 18.0808C79.4434 18.1291 79.3224 18.2051 79.222 18.3036C79.1216 18.4021 79.0442 18.5208 78.995 18.6515C78.9459 18.7822 78.9262 18.9218 78.9373 19.0607C78.8739 19.9417 78.8317 32.8871 78.7788 33.8821H78.8Z" fill="#474747"/>
<path d="M65.6702 46.7445C65.3005 46.7445 64.9202 46.6408 64.5505 46.6305C63.9801 46.6305 63.3991 46.6305 62.8287 46.6305L61.3816 46.5579C61.0302 46.5275 60.6767 46.5275 60.3253 46.5579C60.0407 46.5839 59.7543 46.5839 59.4697 46.5579C59.3431 46.5723 59.2149 46.5588 59.0943 46.5184C58.9737 46.478 58.8638 46.4117 58.7727 46.3243C58.6816 46.2368 58.6116 46.1306 58.5677 46.0132C58.5238 45.8958 58.5072 45.7703 58.519 45.6458C58.4695 45.1907 58.5053 44.7305 58.6246 44.288C58.6374 44.1954 58.6692 44.1062 58.7179 44.0259C58.7667 43.9455 58.8315 43.8757 58.9084 43.8205C58.9853 43.7654 59.0728 43.726 59.1657 43.7048C59.2585 43.6836 59.3547 43.6811 59.4486 43.6973C60.6739 43.6973 61.8886 43.7698 63.1139 43.8216L65.3638 43.9046C65.7969 43.9046 66.23 43.9667 66.6525 44.0082C66.799 44.0074 66.9406 44.0599 67.0499 44.1557C67.1592 44.2514 67.2284 44.3835 67.244 44.5264C67.3074 44.9514 67.3391 45.366 67.3708 45.7909C67.3851 45.9505 67.3452 46.1102 67.2573 46.2452C67.1695 46.3802 67.0385 46.4829 66.8849 46.5372C66.501 46.695 66.0858 46.7659 65.6702 46.7445Z" fill="#474747"/>
<path d="M18.2634 45.1276C18.2634 44.8995 18.3268 44.6715 18.3691 44.4539C18.3801 44.329 18.4342 44.2116 18.5226 44.1211C18.611 44.0306 18.7283 43.9725 18.855 43.9564C18.9923 43.9564 19.1402 43.8838 19.2775 43.8734C20.3338 43.8734 21.3901 43.8009 22.4464 43.7905C23.2175 43.7905 23.9886 43.7905 24.7597 43.8734C25.0105 43.8837 25.259 43.9255 25.4991 43.9978C25.6233 44.0227 25.7397 44.076 25.8388 44.1534C25.938 44.2309 26.017 44.3303 26.0695 44.4435C26.1919 44.6795 26.2557 44.9405 26.2557 45.2053C26.2557 45.4701 26.1919 45.7311 26.0695 45.9671C25.9883 46.1461 25.8518 46.2955 25.6793 46.3941C25.5068 46.4927 25.307 46.5355 25.1082 46.5164C24.6963 46.5164 24.2843 46.4335 23.8724 46.4335C22.4464 46.4335 21.0309 46.4335 19.6472 46.4335H19.2669C19.1411 46.4512 19.0128 46.4397 18.8924 46.3999C18.7719 46.3601 18.6627 46.2932 18.5733 46.2046C18.484 46.1159 18.417 46.0079 18.3779 45.8893C18.3388 45.7706 18.3285 45.6446 18.3479 45.5214V45.1483L18.2634 45.1276Z" fill="#474747"/>
</g>
<defs>
<clipPath id="clip0_14_505">
<rect width="97" height="56" fill="white"/>
</clipPath>
</defs>
</svg>
