<svg width="34" height="34" viewBox="0 0 34 34" fill="none" xmlns="http://www.w3.org/2000/svg">
<path d="M26.7386 20.9464H23.9458C23.5754 20.9464 23.2202 21.0935 22.9583 21.3554C22.6965 21.6173 22.5493 21.9725 22.5493 22.3429V32.1179C22.5493 32.4882 22.6965 32.8434 22.9583 33.1053C23.2202 33.3672 23.5754 33.5143 23.9458 33.5143C24.3161 33.5143 24.6713 33.3672 24.9332 33.1053C25.1951 32.8434 25.3422 32.4882 25.3422 32.1179V30.7214H26.7386C28.0349 30.7214 29.278 30.2065 30.1946 29.2899C31.1112 28.3733 31.6261 27.1302 31.6261 25.8339C31.6261 24.5377 31.1112 23.2945 30.1946 22.3779C29.278 21.4614 28.0349 20.9464 26.7386 20.9464ZM26.7386 27.9286H25.3422V23.7393H26.7386C27.2942 23.7393 27.8269 23.96 28.2198 24.3528C28.6126 24.7456 28.8333 25.2784 28.8333 25.8339C28.8333 26.3895 28.6126 26.9222 28.2198 27.3151C27.8269 27.7079 27.2942 27.9286 26.7386 27.9286ZM18.36 22.3429V32.1179C18.36 32.4882 18.2129 32.8434 17.951 33.1053C17.6892 33.3672 17.334 33.5143 16.9636 33.5143C16.5933 33.5143 16.2381 33.3672 15.9762 33.1053C15.7143 32.8434 15.5672 32.4882 15.5672 32.1179V22.3429C15.5672 21.9725 15.7143 21.6173 15.9762 21.3554C16.2381 21.0935 16.5933 20.9464 16.9636 20.9464C17.334 20.9464 17.6892 21.0935 17.951 21.3554C18.2129 21.6173 18.36 21.9725 18.36 22.3429ZM11.3779 32.1179C11.3779 32.4882 11.2308 32.8434 10.9689 33.1053C10.707 33.3672 10.3518 33.5143 9.98148 33.5143H4.39576C4.14958 33.5165 3.90718 33.4536 3.69315 33.3319C3.47911 33.2103 3.30104 33.0342 3.17699 32.8215C3.05294 32.6089 2.98732 32.3672 2.98677 32.121C2.98623 31.8748 3.05078 31.6328 3.17389 31.4196L7.56566 23.7393H4.39576C4.02541 23.7393 3.67022 23.5922 3.40834 23.3303C3.14646 23.0684 2.99933 22.7132 2.99933 22.3429C2.99933 21.9725 3.14646 21.6173 3.40834 21.3554C3.67022 21.0935 4.02541 20.9464 4.39576 20.9464H9.98148C10.2277 20.9442 10.4701 21.0071 10.6841 21.1288C10.8981 21.2504 11.0762 21.4265 11.2002 21.6392C11.3243 21.8518 11.3899 22.0935 11.3905 22.3397C11.391 22.5859 11.3265 22.8279 11.2034 23.0411L6.80286 30.7214H9.98148C10.3518 30.7214 10.707 30.8685 10.9689 31.1304C11.2308 31.3923 11.3779 31.7475 11.3779 32.1179ZM31.9159 10.1835L22.1409 0.408456C22.0111 0.278819 21.857 0.176023 21.6875 0.105939C21.518 0.0358544 21.3363 -0.000143812 21.1529 4.31774e-07H4.39576C3.65505 4.31774e-07 2.94468 0.294247 2.42091 0.818009C1.89715 1.34177 1.60291 2.05215 1.60291 2.79286V15.3607C1.60291 15.7311 1.75003 16.0863 2.01191 16.3481C2.27379 16.61 2.62898 16.7571 2.99933 16.7571C3.36969 16.7571 3.72488 16.61 3.98676 16.3481C4.24864 16.0863 4.39576 15.7311 4.39576 15.3607V2.79286H19.7565V11.1714C19.7565 11.5418 19.9036 11.897 20.1655 12.1589C20.4274 12.4207 20.7825 12.5679 21.1529 12.5679H29.5315V15.3607C29.5315 15.7311 29.6786 16.0863 29.9405 16.3481C30.2024 16.61 30.5575 16.7571 30.9279 16.7571C31.2983 16.7571 31.6534 16.61 31.9153 16.3481C32.1772 16.0863 32.3243 15.7311 32.3243 15.3607V11.1714C32.3245 10.988 32.2885 10.8063 32.2184 10.6368C32.1483 10.4673 32.0455 10.3132 31.9159 10.1835ZM22.5493 9.775V4.76706L27.5573 9.775H22.5493Z" fill="#073F88"/>
</svg>
